<svg width="22" height="30" viewBox="0 0 22 30" fill="none" xmlns="http://www.w3.org/2000/svg">
<path d="M9.81404 29.6665C9.65943 29.6663 9.50604 29.6392 9.36071 29.5865C9.08037 29.4838 8.84259 29.2901 8.68545 29.0362C8.52832 28.7824 8.46091 28.4832 8.49404 28.1865L9.52071 18.7331H1.66738C1.42515 18.7335 1.1874 18.6679 0.979661 18.5433C0.771923 18.4187 0.602043 18.2399 0.488268 18.0261C0.374493 17.8122 0.321121 17.5714 0.333884 17.3296C0.346647 17.0877 0.425062 16.8538 0.560709 16.6531L11.0807 0.919804C11.2471 0.673588 11.491 0.49001 11.7736 0.398216C12.0562 0.306422 12.3614 0.311674 12.6407 0.413137C12.9092 0.512821 13.1385 0.696317 13.2946 0.936457C13.4507 1.1766 13.5253 1.46062 13.5074 1.74647L12.4807 11.2665H20.334C20.5763 11.2661 20.814 11.3317 21.0218 11.4563C21.2295 11.5809 21.3994 11.7597 21.5131 11.9735C21.6269 12.1874 21.6803 12.4282 21.6675 12.6701C21.6548 12.9119 21.5764 13.1458 21.4407 13.3465L10.9207 29.0798C10.7984 29.2607 10.6335 29.4089 10.4406 29.5112C10.2476 29.6135 10.0324 29.6668 9.81404 29.6665Z" fill="#3464eb"/>
</svg>
