<svg width="28" height="32" viewBox="0 0 28 32" fill="none" xmlns="http://www.w3.org/2000/svg">
<path d="M7.59948 14.9333H6.53281V17.0667H7.59948V14.9333ZM20.3995 17.0667H21.4661V14.9333H20.3995V17.0667ZM7.59948 8.53333H6.53281V10.6667H7.59948V8.53333ZM11.8661 10.6667H12.9328V8.53333H11.8661V10.6667ZM20.3995 1.06667L21.1547 0.311467L20.8411 0H20.3995V1.06667ZM26.7995 7.46667H27.8661V7.02507L27.5547 6.71147L26.7995 7.46667ZM15.0661 23.4667L14.3109 24.2219L15.0661 23.4667ZM13.9995 24.5333L14.4773 25.4869L14.5627 25.4443L14.6395 25.3867L13.9995 24.5333ZM7.59948 17.0667H20.3995V14.9333H7.59948V17.0667ZM7.59948 10.6667H11.8661V8.53333H7.59948V10.6667ZM24.6661 29.8667H3.33281V32H24.6661V29.8667ZM2.26615 28.8V3.2H0.132812V28.8H2.26615ZM3.33281 2.13333H20.3995V0H3.33281V2.13333ZM25.7328 7.46667V28.8H27.8661V7.46667H25.7328ZM19.6443 1.82187L26.0443 8.22187L27.5547 6.71147L21.1547 0.311467L19.6443 1.82187ZM3.33281 29.8667C3.04992 29.8667 2.7786 29.7543 2.57857 29.5542C2.37853 29.3542 2.26615 29.0829 2.26615 28.8H0.132812C0.132813 29.6487 0.469955 30.4626 1.07007 31.0627C1.67019 31.6629 2.48412 32 3.33281 32V29.8667ZM24.6661 32C25.5148 32 26.3288 31.6629 26.9289 31.0627C27.529 30.4626 27.8661 29.6487 27.8661 28.8H25.7328C25.7328 29.0829 25.6204 29.3542 25.4204 29.5542C25.2204 29.7543 24.949 29.8667 24.6661 29.8667V32ZM2.26615 3.2C2.26615 2.9171 2.37853 2.64579 2.57857 2.44575C2.7786 2.24571 3.04992 2.13333 3.33281 2.13333V0C2.48412 0 1.67019 0.337142 1.07007 0.937258C0.469955 1.53737 0.132813 2.35131 0.132812 3.2H2.26615ZM9.67735 24.8704C9.91415 24.16 10.5883 23.5008 11.448 23.2704C12.2523 23.0549 13.2869 23.1957 14.3109 24.2219L15.8213 22.7115C14.2853 21.1755 12.4741 20.7851 10.8955 21.2096C9.37441 21.6192 8.12855 22.7733 7.65281 24.1963L9.67948 24.8704H9.67735ZM14.3109 24.2219C14.371 24.2801 14.4273 24.3421 14.4795 24.4075L16.1648 23.0976C16.0584 22.9626 15.9437 22.8344 15.8213 22.7136L14.3109 24.2219ZM14.4795 24.4075C14.6459 24.6208 14.6075 24.6891 14.6139 24.6421C14.6181 24.6123 14.6267 24.6613 14.4987 24.7765C14.3142 24.9307 14.1051 25.0526 13.88 25.1371C13.6096 25.2459 13.3276 25.3232 13.0395 25.3675C12.8637 25.4009 12.684 25.4081 12.5061 25.3888C12.4699 25.3803 12.5445 25.3888 12.6555 25.4677C12.7915 25.5727 12.8915 25.7174 12.9416 25.8818C12.9917 26.0462 12.9893 26.2221 12.9349 26.3851C12.9229 26.4204 12.9064 26.4541 12.8859 26.4853C12.8816 26.4896 12.9179 26.4427 13.0395 26.3424C13.2827 26.1461 13.7307 25.8603 14.4773 25.4891L13.5216 23.5797C12.7173 23.9808 12.1136 24.3477 11.6997 24.6827C11.4899 24.8465 11.3033 25.0381 11.1451 25.2523C10.9439 25.5216 10.8387 25.8506 10.8464 26.1867C10.8556 26.3834 10.9094 26.5755 11.0036 26.7484C11.0978 26.9214 11.2301 27.0707 11.3904 27.1851C11.6315 27.3643 11.8981 27.4411 12.0944 27.4816C12.4933 27.5605 12.9477 27.5392 13.3595 27.4773C14.1701 27.3536 15.2197 27.0037 15.9344 26.3552C16.3056 26.016 16.6576 25.5296 16.7323 24.8917C16.8091 24.2389 16.5744 23.6267 16.1627 23.0997L14.4773 24.4075H14.4795ZM14.6395 25.3867C14.9808 25.1256 15.3517 24.9058 15.7445 24.7317L14.8976 22.7733C14.3856 22.9952 13.8736 23.296 13.3595 23.68L14.6395 25.3867ZM15.7445 24.7317C17.1312 24.1323 18.3707 24.448 19.64 25.0517C19.96 25.2053 20.2715 25.3717 20.5872 25.5424C20.8944 25.7088 21.2187 25.8859 21.5259 26.0437C22.1147 26.3403 22.8443 26.6667 23.5995 26.6667V24.5333C23.3989 24.5333 23.0704 24.4331 22.4901 24.1408C22.2171 24 21.9312 23.8421 21.6027 23.6651C21.2827 23.4923 20.9285 23.3024 20.5573 23.1275C19.0683 22.4171 17.1205 21.8133 14.8976 22.7733L15.7445 24.7317Z" fill="#3464eb"/>
</svg>
