<svg width="6" height="10" viewBox="0 0 6 10" fill="none" xmlns="http://www.w3.org/2000/svg">
<path d="M0.982517 1.03282C0.912989 1.10221 0.857828 1.18462 0.820192 1.27535C0.782556 1.36608 0.763184 1.46335 0.763184 1.56157C0.763184 1.6598 0.782556 1.75706 0.820192 1.84779C0.857828 1.93852 0.912989 2.02094 0.982517 2.09032L3.89252 5.00032L0.982517 7.91032C0.842284 8.05055 0.763501 8.24075 0.763501 8.43907C0.763501 8.63739 0.842284 8.82759 0.982517 8.96782C1.12275 9.10806 1.31295 9.18684 1.51127 9.18684C1.70959 9.18684 1.89978 9.10806 2.04002 8.96782L5.48252 5.52532C5.55204 5.45594 5.60721 5.37352 5.64484 5.28279C5.68248 5.19206 5.70185 5.0948 5.70185 4.99657C5.70185 4.89834 5.68248 4.80108 5.64484 4.71035C5.60721 4.61962 5.55204 4.53721 5.48252 4.46782L2.04002 1.02532C1.75502 0.740322 1.27502 0.740322 0.982517 1.03282Z" fill="#293247"/>
</svg>
