<svg width="24" height="24" viewBox="0 0 24 24" fill="none" xmlns="http://www.w3.org/2000/svg">
<path fill-rule="evenodd" clip-rule="evenodd" d="M6.11719 2.83019L0.445312 5.65953L12 5.65958H23.5547L17.8828 2.82939C12.888 0.337106 12.1858 -0.000655442 12 9.53206e-07C11.8157 0.000704233 11.0721 0.358439 6.11719 2.83019ZM0 7.1231C0 7.14969 0.0434531 7.30052 0.0966094 7.45829C0.149719 7.61601 0.257766 7.87379 0.336656 8.03113C0.415594 8.18848 0.590203 8.48676 0.724688 8.694C0.859219 8.90123 1.10016 9.22291 1.26014 9.40886C1.42013 9.59481 1.61236 9.77864 1.68727 9.81737C1.80722 9.87945 3.03787 9.88784 12 9.88784C20.9621 9.88784 22.1928 9.87945 22.3127 9.81737C22.3876 9.77864 22.5799 9.59481 22.7399 9.40886C22.8998 9.22291 23.1408 8.90123 23.2753 8.694C23.4098 8.48676 23.5828 8.19059 23.6596 8.03587C23.7365 7.88115 23.8446 7.62262 23.8997 7.46134C23.9549 7.30005 24 7.14711 24 7.12142C24 7.09052 19.9368 7.07472 12 7.07472C3.78661 7.07472 0 7.09 0 7.1231ZM2.8125 15.5375V19.7806H4.94531H7.07812V15.5375V11.2944H4.94531H2.8125V15.5375ZM9.89062 15.5375V19.7806H12H14.1094V15.5375V11.2944H12H9.89062V15.5375ZM16.9219 15.5375V19.7806H19.0547H21.1875V15.5375V11.2944H19.0547H16.9219V15.5375ZM1.31091 21.2257C1.27139 21.2432 1.1962 21.2892 1.14384 21.3279C1.09153 21.3665 0.943312 21.5353 0.8145 21.7029C0.685734 21.8706 0.513844 22.1138 0.432562 22.2435C0.351234 22.3732 0.220687 22.6206 0.142359 22.7934C0.0547969 22.9866 4.6875e-05 23.1845 0.0001875 23.3077C0.00028125 23.4248 0.0390469 23.5715 0.0935156 23.6608C0.14475 23.7449 0.255375 23.8555 0.339422 23.9068C0.490781 23.9991 0.599531 24 12 24C23.4005 24 23.5092 23.9991 23.6606 23.9068C23.7446 23.8555 23.8552 23.7449 23.9065 23.6608C23.9613 23.5709 23.9997 23.4248 23.9998 23.3057C24 23.1747 23.9449 22.9846 23.8437 22.7665C23.7577 22.5812 23.6125 22.3136 23.521 22.1718C23.4295 22.03 23.2565 21.7873 23.1366 21.6326C23.0167 21.4779 22.8511 21.3144 22.7686 21.2693C22.627 21.1918 22.0282 21.1874 12.0007 21.1905C6.16087 21.1923 1.35047 21.2081 1.31091 21.2257Z" fill="#3864FF"/>
</svg>
