<svg width="32" height="32" viewBox="0 0 32 32" fill="none" xmlns="http://www.w3.org/2000/svg">
<path d="M31.5197 19.8705C29.3827 28.442 20.7012 33.6585 12.1287 31.521C3.55968 29.384 -1.65682 20.702 0.481183 12.131C2.61718 3.55849 11.2987 -1.65851 19.8687 0.478489C28.4407 2.61549 33.6567 11.2985 31.5197 19.8705Z" fill="#F7931A"/>
<path d="M23.0546 13.7205C23.3731 11.5915 21.7521 10.447 19.5356 9.68349L20.2546 6.79949L18.4991 6.36199L17.7991 9.16999C17.3376 9.05499 16.8636 8.94649 16.3926 8.83899L17.0976 6.01249L15.3431 5.57499L14.6236 8.45799C14.2416 8.37099 13.8666 8.28499 13.5026 8.19449L13.5046 8.18549L11.0836 7.58099L10.6166 9.45599C10.6166 9.45599 11.9191 9.75449 11.8916 9.77299C12.6026 9.95049 12.7311 10.421 12.7096 10.794L11.8906 14.0795C11.9396 14.092 12.0031 14.11 12.0731 14.138C12.0146 14.1235 11.9521 14.1075 11.8876 14.092L10.7396 18.6945C10.6526 18.9105 10.4321 19.2345 9.9351 19.1115C9.9526 19.137 8.6591 18.793 8.6591 18.793L7.7876 20.8025L10.0721 21.372C10.4971 21.4785 10.9136 21.59 11.3236 21.695L10.5971 24.612L12.3506 25.0495L13.0701 22.1635C13.5491 22.2935 14.0141 22.4135 14.4691 22.5265L13.7521 25.399L15.5076 25.8365L16.2341 22.925C19.2276 23.4915 21.4786 23.263 22.4261 20.5555C23.1896 18.3755 22.3881 17.118 20.8131 16.298C21.9601 16.0335 22.8241 15.279 23.0546 13.7205ZM19.0436 19.345C18.5011 21.525 14.8306 20.3465 13.6406 20.051L14.6046 16.1865C15.7946 16.4835 19.6106 17.0715 19.0436 19.345ZM19.5866 13.689C19.0916 15.672 16.0366 14.6645 15.0456 14.4175L15.9196 10.9125C16.9106 11.1595 20.1021 11.6205 19.5866 13.689Z" fill="white"/>
</svg>
