<svg width="20" height="20" viewBox="0 0 20 20" fill="none" xmlns="http://www.w3.org/2000/svg">
<path d="M9.66836 15.2583C9.82693 15.4934 10.173 15.4934 10.3316 15.2583L13.4582 10.6236C13.6374 10.3579 13.447 9.99989 13.1266 9.99989H11.9515C11.7306 9.99989 11.5515 9.82081 11.5515 9.59989V3.00706C11.5515 2.78614 11.3725 2.60706 11.1515 2.60706H8.84837C8.62745 2.60706 8.44837 2.78614 8.44837 3.00706V9.59989C8.44837 9.82081 8.26928 9.99989 8.04837 9.99989H6.87334C6.55287 9.99989 6.36251 10.3579 6.54174 10.6236L9.66836 15.2583Z" fill="url(#paint0_linear_1949_4860)"/>
<path d="M9.66836 15.2583C9.82693 15.4934 10.173 15.4934 10.3316 15.2583L13.4582 10.6236C13.6374 10.3579 13.447 9.99989 13.1266 9.99989H11.9515C11.7306 9.99989 11.5515 9.82081 11.5515 9.59989V3.00706C11.5515 2.78614 11.3725 2.60706 11.1515 2.60706H8.84837C8.62745 2.60706 8.44837 2.78614 8.44837 3.00706V9.59989C8.44837 9.82081 8.26928 9.99989 8.04837 9.99989H6.87334C6.55287 9.99989 6.36251 10.3579 6.54174 10.6236L9.66836 15.2583Z" stroke="url(#paint1_linear_1949_4860)"/>
<path d="M15.4305 5.74282H14.0789C13.8856 5.74282 13.7289 5.89952 13.7289 6.09282V7.58842C13.7289 7.78172 13.8856 7.93842 14.0789 7.93842H15.2305C15.2581 7.93842 15.2805 7.96081 15.2805 7.98842V16.3714C15.2805 16.399 15.2581 16.4214 15.2305 16.4214H9.99996H4.7694C4.74179 16.4214 4.7194 16.399 4.7194 16.3714V12.0535V7.98842C4.7194 7.96081 4.74179 7.93842 4.7694 7.93842H5.92099C6.11429 7.93842 6.27099 7.78172 6.27099 7.58842V6.09282C6.27099 5.89952 6.11429 5.74282 5.92099 5.74282H4.5694C3.60417 5.74282 2.86781 6.68964 2.86781 7.78842V16.5714C2.86781 17.1286 3.05407 17.5793 3.36682 17.8911C3.67889 18.2021 4.10633 18.3642 4.5694 18.3642H15.4305C15.8936 18.3642 16.321 18.2021 16.6331 17.8911C16.9458 17.5793 17.1321 17.1286 17.1321 16.5714V7.78842C17.1321 6.68964 16.3957 5.74282 15.4305 5.74282Z" fill="url(#paint2_linear_1949_4860)" stroke="url(#paint3_linear_1949_4860)" stroke-width="0.3"/>
<defs>
<linearGradient id="paint0_linear_1949_4860" x1="8.33399" y1="6.33225" x2="20.1077" y2="15.019" gradientUnits="userSpaceOnUse">
<stop stop-color="#808080"/>
<stop offset="1" stop-color="#808080"/>
</linearGradient>
<linearGradient id="paint1_linear_1949_4860" x1="8.33399" y1="6.33225" x2="20.1077" y2="15.019" gradientUnits="userSpaceOnUse">
<stop stop-color="#808080"/>
<stop offset="1" stop-color="#808080"/>
</linearGradient>
<linearGradient id="paint2_linear_1949_4860" x1="7.00122" y1="9.38519" x2="17.8865" y2="24.8053" gradientUnits="userSpaceOnUse">
<stop stop-color="#808080"/>
<stop offset="1" stop-color="#808080"/>
</linearGradient>
<linearGradient id="paint3_linear_1949_4860" x1="7.00122" y1="9.38519" x2="17.8865" y2="24.8053" gradientUnits="userSpaceOnUse">
<stop stop-color="#808080"/>
<stop offset="1" stop-color="#808080"/>
</linearGradient>
</defs>
</svg>
