<svg width="41" height="41" viewBox="0 0 41 41" fill="none" xmlns="http://www.w3.org/2000/svg">
<path d="M20.4987 3.4165C15.7888 3.4165 11.957 7.2483 11.957 11.9582V17.0832H10.2487C9.34254 17.0832 8.4735 17.4431 7.83275 18.0839C7.192 18.7246 6.83203 19.5937 6.83203 20.4998V34.1665C6.83203 35.0727 7.192 35.9417 7.83275 36.5825C8.4735 37.2232 9.34254 37.5832 10.2487 37.5832H30.7487C31.6549 37.5832 32.5239 37.2232 33.1646 36.5825C33.8054 35.9417 34.1654 35.0727 34.1654 34.1665V20.4998C34.1654 19.5937 33.8054 18.7246 33.1646 18.0839C32.5239 17.4431 31.6549 17.0832 30.7487 17.0832H29.0404V11.9582C29.0404 7.2483 25.2086 3.4165 20.4987 3.4165ZM15.3737 11.9582C15.3737 9.13259 17.6731 6.83317 20.4987 6.83317C23.3243 6.83317 25.6237 9.13259 25.6237 11.9582V17.0832H15.3737V11.9582ZM22.207 30.2766V34.1665H18.7904V30.2766C18.1931 29.9346 17.7135 29.4196 17.4149 28.7995C17.1162 28.1794 17.0125 27.4834 17.1174 26.8032C17.2223 26.123 17.5308 25.4905 18.0024 24.9892C18.474 24.4879 19.0864 24.1413 19.759 23.9951C20.2585 23.8846 20.7765 23.8877 21.2747 24.0041C21.7729 24.1205 22.2386 24.3473 22.6375 24.6676C23.0364 24.988 23.3583 25.3938 23.5795 25.8551C23.8006 26.3165 23.9154 26.8216 23.9154 27.3332C23.9144 27.9306 23.756 28.5173 23.456 29.0341C23.1561 29.5508 22.7253 29.9794 22.207 30.2766V30.2766Z" fill="white"/>
</svg>
