<svg width="24" height="24" viewBox="0 0 24 24" fill="none" xmlns="http://www.w3.org/2000/svg">
<g clip-path="url(#clip0_78_7983)">
<path d="M16.2271 16.9171H21.0872C20.6791 11.5314 18.3603 8.1862 15.3861 6.20753L16.7403 3.2519C16.7812 3.15811 16.7982 3.05563 16.7898 2.95365C16.7814 2.85166 16.7478 2.75336 16.692 2.66757C16.6362 2.58177 16.5601 2.51115 16.4703 2.46205C16.3805 2.41295 16.2799 2.3869 16.1776 2.38623H7.70025C7.59792 2.3869 7.49736 2.41295 7.40758 2.46205C7.31779 2.51115 7.2416 2.58177 7.18583 2.66757C7.13006 2.75336 7.09646 2.85166 7.08804 2.95365C7.07961 3.05563 7.09663 3.15811 7.13757 3.2519L7.87957 4.85956H14.1371L13.5806 6.09623H12.4367C12.786 7.03563 13.0428 8.0069 13.2034 8.99621C13.3074 9.60989 13.3735 10.2294 13.4013 10.8512L12.4243 11.5376C12.427 10.7378 12.3608 9.93923 12.2264 9.1508C12.0556 8.10147 11.7609 7.07612 11.3484 6.09623H10.7301C10.1594 6.81725 9.64669 7.58224 9.19662 8.38406C8.83372 9.07187 8.52566 9.78723 8.2753 10.5235L7.42818 9.96081C7.67545 9.2492 7.97941 8.55858 8.33713 7.89558C8.69859 7.27387 9.09495 6.67313 9.52433 6.09623H8.44225L8.49172 6.20135C5.21455 8.38406 2.72267 12.2177 2.72267 18.6175C2.71431 18.752 2.73269 18.8869 2.77675 19.0142C2.82082 19.1416 2.88968 19.259 2.97937 19.3596C3.06906 19.4602 3.1778 19.5421 3.2993 19.6004C3.4208 19.6588 3.55267 19.6925 3.68727 19.6996H8.63393C8.42153 19.4785 8.27487 19.2027 8.21039 18.9029C8.14591 18.6032 8.16616 18.2915 8.26886 18.0026C8.37157 17.7138 8.55267 17.4592 8.79189 17.2675C9.0311 17.0758 9.31898 16.9544 9.62327 16.9171C9.47518 16.6659 9.39625 16.38 9.39448 16.0885C9.39448 15.6457 9.57038 15.2211 9.88347 14.908C10.1966 14.5949 10.6212 14.419 11.064 14.419H14.774C15.2168 14.419 15.6414 14.5949 15.9545 14.908C16.2676 15.2211 16.4435 15.6457 16.4435 16.0885C16.4467 16.3791 16.3719 16.6652 16.2271 16.9171Z" fill="#F36643"/>
<path d="M14.1928 18.4631C14.1928 18.2991 14.1276 18.1418 14.0117 18.0258C13.8957 17.9099 13.7384 17.8447 13.5744 17.8447H9.86443C9.70044 17.8447 9.54316 17.9099 9.4272 18.0258C9.31124 18.1418 9.24609 18.2991 9.24609 18.4631C9.24609 18.6271 9.31124 18.7843 9.4272 18.9003C9.54316 19.0162 9.70044 19.0814 9.86443 19.0814H13.5744C13.7384 19.0814 13.8957 19.0162 14.0117 18.9003C14.1276 18.7843 14.1928 18.6271 14.1928 18.4631Z" fill="#F36643"/>
<path d="M14.7736 15.3711H11.0636C10.8997 15.3711 10.7424 15.4362 10.6264 15.5522C10.5105 15.6682 10.4453 15.8254 10.4453 15.9894C10.4453 16.1534 10.5105 16.3107 10.6264 16.4267C10.7424 16.5426 10.8997 16.6078 11.0636 16.6078H14.7736C14.9376 16.6078 15.0949 16.5426 15.2109 16.4267C15.3268 16.3107 15.392 16.1534 15.392 15.9894C15.392 15.8254 15.3268 15.6682 15.2109 15.5522C15.0949 15.4362 14.9376 15.3711 14.7736 15.3711Z" fill="#F36643"/>
<path d="M14.4397 20.3179H10.7297C10.5657 20.3179 10.4084 20.383 10.2924 20.499C10.1765 20.6149 10.1113 20.7722 10.1113 20.9362C10.1113 21.1002 10.1765 21.2575 10.2924 21.3734C10.4084 21.4894 10.5657 21.5545 10.7297 21.5545H14.4397C14.6037 21.5545 14.7609 21.4894 14.8769 21.3734C14.9928 21.2575 15.058 21.1002 15.058 20.9362C15.058 20.7722 14.9928 20.6149 14.8769 20.499C14.7609 20.383 14.6037 20.3179 14.4397 20.3179Z" fill="#F36643"/>
<path d="M21.056 20.3179H16.7277C16.5637 20.3179 16.4064 20.383 16.2905 20.499C16.1745 20.6149 16.1094 20.7722 16.1094 20.9362C16.1094 21.1002 16.1745 21.2575 16.2905 21.3734C16.4064 21.4894 16.5637 21.5545 16.7277 21.5545H21.056C21.22 21.5545 21.3773 21.4894 21.4933 21.3734C21.6092 21.2575 21.6744 21.1002 21.6744 20.9362C21.6744 20.7722 21.6092 20.6149 21.4933 20.499C21.3773 20.383 21.22 20.3179 21.056 20.3179Z" fill="#F36643"/>
<path d="M21.6732 17.8447H17.3449C17.1809 17.8447 17.0236 17.9099 16.9077 18.0258C16.7917 18.1418 16.7266 18.2991 16.7266 18.4631C16.7266 18.6271 16.7917 18.7843 16.9077 18.9003C17.0236 19.0162 17.1809 19.0814 17.3449 19.0814H21.6732C21.8372 19.0814 21.9945 19.0162 22.1105 18.9003C22.2264 18.7843 22.2916 18.6271 22.2916 18.4631C22.2916 18.2991 22.2264 18.1418 22.1105 18.0258C21.9945 17.9099 21.8372 17.8447 21.6732 17.8447Z" fill="#F36643"/>
</g>
<defs>
<clipPath id="clip0_78_7983">
<rect width="22.26" height="22.26" fill="white" transform="translate(0.835938 0.840332)"/>
</clipPath>
</defs>
</svg>
