<svg width="21" height="21" viewBox="0 0 21 21" fill="none" xmlns="http://www.w3.org/2000/svg">
<path d="M10.5 3.5C9.11553 3.5 7.76216 3.91054 6.61101 4.67971C5.45987 5.44888 4.56266 6.54213 4.03285 7.82122C3.50303 9.1003 3.36441 10.5078 3.63451 11.8656C3.9046 13.2235 4.57129 14.4708 5.55026 15.4497C6.52922 16.4287 7.7765 17.0954 9.13437 17.3655C10.4922 17.6356 11.8997 17.497 13.1788 16.9672C14.4579 16.4373 15.5511 15.5401 16.3203 14.389C17.0895 13.2378 17.5 11.8845 17.5 10.5C17.5 8.64348 16.7625 6.86301 15.4498 5.55025C14.137 4.2375 12.3565 3.5 10.5 3.5ZM10.5 16.3333C9.34628 16.3333 8.21846 15.9912 7.25918 15.3502C6.29989 14.7093 5.55222 13.7982 5.11071 12.7323C4.66919 11.6664 4.55368 10.4935 4.77876 9.36197C5.00384 8.23042 5.55941 7.19102 6.37521 6.37521C7.19102 5.5594 8.23042 5.00383 9.36198 4.77875C10.4935 4.55367 11.6664 4.66919 12.7323 5.1107C13.7982 5.55221 14.7093 6.29989 15.3502 7.25917C15.9912 8.21846 16.3333 9.34628 16.3333 10.5C16.3333 11.266 16.1825 12.0246 15.8893 12.7323C15.5961 13.4401 15.1665 14.0831 14.6248 14.6248C14.0831 15.1665 13.4401 15.5961 12.7323 15.8893C12.0246 16.1824 11.266 16.3333 10.5 16.3333Z" fill="#FF0E0E"/>
<path d="M10.5005 11.7075C10.2994 11.7075 10.1065 11.6276 9.9643 11.4854C9.82208 11.3431 9.74219 11.1503 9.74219 10.9491V7.44913C9.74219 7.24801 9.82208 7.05512 9.9643 6.91291C10.1065 6.77069 10.2994 6.6908 10.5005 6.6908C10.7016 6.6908 10.8945 6.77069 11.0367 6.91291C11.179 7.05512 11.2589 7.24801 11.2589 7.44913V10.9491C11.2589 11.1503 11.179 11.3431 11.0367 11.4854C10.8945 11.6276 10.7016 11.7075 10.5005 11.7075Z" fill="#FF0E0E"/>
<path d="M10.4727 14.3033C10.9559 14.3033 11.3477 13.9116 11.3477 13.4283C11.3477 12.9451 10.9559 12.5533 10.4727 12.5533C9.98941 12.5533 9.59766 12.9451 9.59766 13.4283C9.59766 13.9116 9.98941 14.3033 10.4727 14.3033Z" fill="#FF0E0E"/>
</svg>
