<svg width="26" height="26" viewBox="0 0 26 26" fill="none" xmlns="http://www.w3.org/2000/svg">
<path d="M12.967 2.3042C7.07679 2.3042 2.30078 7.0802 2.30078 12.9705C2.30078 18.8607 7.07679 23.6367 12.967 23.6367C18.8573 23.6367 23.6333 18.8607 23.6333 12.9705C23.6333 7.0802 18.8573 2.3042 12.967 2.3042ZM13.498 18.1417L13.5027 18.8964C13.5027 19.0012 13.417 19.0893 13.3123 19.0893H12.6361C12.5313 19.0893 12.4456 19.0036 12.4456 18.8988V18.1512C10.3314 17.9941 9.33622 16.7894 9.22908 15.4799C9.21956 15.368 9.30765 15.2727 9.41955 15.2727H10.5195C10.6124 15.2727 10.6933 15.3394 10.7076 15.4299C10.829 16.1846 11.4171 16.7489 12.4718 16.8893V13.4919L11.8837 13.3419C10.6386 13.0443 9.45288 12.2681 9.45288 10.6586C9.45288 8.92299 10.7719 7.98969 12.4575 7.82541V7.03973C12.4575 6.93497 12.5432 6.84926 12.648 6.84926H13.317C13.4218 6.84926 13.5075 6.93497 13.5075 7.03973V7.81827C15.1384 7.98255 16.3621 8.93489 16.505 10.4182C16.5169 10.5301 16.4288 10.6277 16.3145 10.6277H15.2455C15.1503 10.6277 15.0693 10.5563 15.0574 10.4634C14.9622 9.7682 14.4051 9.20155 13.498 9.07775V12.2752L14.1027 12.4157C15.6455 12.7966 16.6955 13.5347 16.6955 15.187C16.6955 16.9798 15.3622 17.9798 13.498 18.1417ZM10.9338 10.5491C10.9338 11.1539 11.3076 11.6229 12.1123 11.9134C12.2242 11.9586 12.3361 11.9943 12.4694 12.0324V9.08013C11.5909 9.19203 10.9338 9.68486 10.9338 10.5491ZM13.7075 13.768C13.6408 13.7538 13.5742 13.7371 13.498 13.7157V16.8989C14.5122 16.8084 15.2122 16.2513 15.2122 15.318C15.2122 14.5871 14.8336 14.1109 13.7075 13.768Z" fill="#F34343"/>
</svg>
