<svg width="22" height="22" viewBox="0 0 22 22" fill="none" xmlns="http://www.w3.org/2000/svg">
<path d="M21.6699 13.661C20.2007 19.5539 14.2322 23.1402 8.33859 21.6707C2.4474 20.2015 -1.13894 14.2326 0.330936 8.34005C1.79944 2.44646 7.76797 -1.14023 13.6598 0.32896C19.5531 1.79815 23.1391 7.76771 21.6699 13.661Z" fill="#F7931A"/>
<path d="M15.8501 9.43284C16.069 7.96915 14.9546 7.18231 13.4308 6.6574L13.9251 4.67465L12.7182 4.37387L12.2369 6.30437C11.9196 6.22531 11.5938 6.15072 11.2699 6.07681L11.7546 4.13359L10.5484 3.83281L10.0538 5.81487C9.79113 5.75506 9.53332 5.69593 9.28307 5.63372L9.28444 5.62753L7.62 5.21193L7.29894 6.501C7.29894 6.501 8.19441 6.70622 8.1755 6.71893C8.66432 6.84097 8.75266 7.16443 8.73788 7.42087L8.17482 9.67965C8.2085 9.68825 8.25216 9.70062 8.30028 9.71987C8.26007 9.7099 8.2171 9.6989 8.17275 9.68825L7.3835 12.8525C7.32369 13.001 7.1721 13.2237 6.83041 13.1392C6.84244 13.1567 5.95316 12.9202 5.95316 12.9202L5.354 14.3017L6.9246 14.6932C7.21679 14.7665 7.50313 14.8431 7.785 14.9153L7.28553 16.9207L8.49107 17.2215L8.98572 15.2374C9.31504 15.3268 9.63472 15.4093 9.94753 15.487L9.4546 17.4618L10.6615 17.7626L11.161 15.7609C13.219 16.1504 14.7666 15.9933 15.418 14.1319C15.9429 12.6332 15.3918 11.7686 14.309 11.2049C15.0976 11.023 15.6916 10.5043 15.8501 9.43284ZM13.0925 13.2997C12.7195 14.7984 10.1961 13.9882 9.37794 13.7851L10.0407 11.1282C10.8588 11.3324 13.4823 11.7367 13.0925 13.2997ZM13.4658 9.41118C13.1255 10.7745 11.0252 10.0818 10.3439 9.91203L10.9448 7.50234C11.6261 7.67215 13.8202 7.98909 13.4658 9.41118Z" fill="#293247"/>
</svg>
