<svg width="22" height="22" viewBox="0 0 22 22" fill="none" xmlns="http://www.w3.org/2000/svg">
<path d="M11 22C17.0959 22 22 17.0959 22 11C22 4.90413 17.0959 0 11 0C4.90413 0 0 4.90413 0 11C0 17.0959 4.90413 22 11 22Z" fill="#3864FF"/>
<path d="M14.0249 12.7416C14.0249 11.1375 13.0624 10.5875 11.1374 10.3584C9.76243 10.175 9.48743 9.80837 9.48743 9.16663C9.48743 8.52489 9.9458 8.1125 10.8624 8.1125C11.6874 8.1125 12.1458 8.3875 12.3749 9.075C12.4208 9.2125 12.5583 9.30413 12.6958 9.30413H13.4291C13.6124 9.30413 13.7499 9.16663 13.7499 8.98337V8.9375C13.5666 7.92913 12.7416 7.15 11.6874 7.05837V5.95837C11.6874 5.775 11.5499 5.6375 11.3208 5.59163H10.6333C10.4499 5.59163 10.3124 5.72913 10.2666 5.95837V7.0125C8.89156 7.19587 8.0208 8.1125 8.0208 9.25837C8.0208 10.7709 8.93743 11.3666 10.8624 11.5959C12.1458 11.825 12.5583 12.1 12.5583 12.8334C12.5583 13.5667 11.9166 14.0709 11.0458 14.0709C9.85406 14.0709 9.44156 13.5666 9.30406 12.8791C9.2583 12.6959 9.1208 12.6041 8.9833 12.6041H8.20406C8.0208 12.6041 7.8833 12.7416 7.8833 12.925V12.9709C8.06656 14.1166 8.79993 14.9416 10.3124 15.1709V16.2709C10.3124 16.4541 10.4499 16.5916 10.6791 16.6375H11.3666C11.5499 16.6375 11.6874 16.5 11.7333 16.2709V15.1709C13.1083 14.9416 14.0249 13.9791 14.0249 12.7416Z" fill="white"/>
<path d="M8.66242 17.5541C5.08742 16.2709 3.25405 12.2834 4.58329 8.75414C5.27079 6.82913 6.78329 5.3625 8.66242 4.675C8.84579 4.58337 8.93742 4.44587 8.93742 4.21663V3.575C8.93742 3.39163 8.84579 3.25413 8.66242 3.20837C8.61655 3.20837 8.52492 3.20837 8.47905 3.25413C4.12492 4.62913 1.74155 9.25838 3.11655 13.6125C3.94155 16.1791 5.91242 18.15 8.47905 18.975C8.66242 19.0666 8.84579 18.975 8.89155 18.7916C8.93742 18.7459 8.93742 18.7 8.93742 18.6084V17.9666C8.93742 17.8291 8.79992 17.6459 8.66242 17.5541ZM13.5208 3.25413C13.3374 3.1625 13.1541 3.25413 13.1083 3.4375C13.0624 3.48337 13.0624 3.52913 13.0624 3.62087V4.2625C13.0624 4.44587 13.1999 4.62913 13.3374 4.72087C16.9124 6.00413 18.7458 9.99164 17.4166 13.5209C16.7291 15.4459 15.2166 16.9125 13.3374 17.6C13.1541 17.6916 13.0624 17.8291 13.0624 18.0584V18.7C13.0624 18.8834 13.1541 19.0209 13.3374 19.0666C13.3833 19.0666 13.4749 19.0666 13.5208 19.0209C17.8749 17.6459 20.2583 13.0166 18.8833 8.66251C18.0583 6.05 16.0416 4.07913 13.5208 3.25413Z" fill="white"/>
</svg>
