<svg width="23" height="23" viewBox="0 0 23 23" fill="none" xmlns="http://www.w3.org/2000/svg">
<g clip-path="url(#clip0_78_7965)">
<path fill-rule="evenodd" clip-rule="evenodd" d="M11.4662 13.0313L14.6494 16.2183L13.3765 17.4927H13.3172L11.4662 15.6395L9.61523 17.4927H7.01026L11.4662 13.0313ZM5.50446 13.4363V13.4236L7.37876 11.547L5.50446 9.67046V7.06234L9.98162 11.5449L6.80059 14.734L5.50446 13.4363ZM12.9487 11.547L16.1086 8.38337L17.4111 9.68743L15.5537 11.547L17.4746 13.4703V16.0635L17.4683 16.0699L12.9487 11.547ZM9.60252 5.60137L8.30639 6.89907L11.4662 10.0627L15.9222 5.60137H13.3172L11.4662 7.45462L9.61523 5.60137H9.60252ZM11.4895 22.1004C17.337 22.1004 22.0767 17.3549 22.0767 11.5004C22.0767 5.6459 17.337 0.900391 11.4895 0.900391C5.64212 0.900391 0.902344 5.6459 0.902344 11.5004C0.902344 17.3549 5.64212 22.1004 11.4895 22.1004Z" fill="#3575FF"/>
</g>
<defs>
<clipPath id="clip0_78_7965">
<rect width="21.2" height="21.2" fill="white" transform="translate(0.902344 0.900391)"/>
</clipPath>
</defs>
</svg>
