<svg width="22" height="22" viewBox="0 0 22 22" fill="none" xmlns="http://www.w3.org/2000/svg">
<path fill-rule="evenodd" clip-rule="evenodd" d="M10.9758 12.5887L14.2831 15.896L12.9606 17.2184H12.899L10.9758 15.2953L9.05261 17.2184H6.34607L10.9758 12.5887ZM4.78156 13.009V12.9958L6.72895 11.0484L4.78156 9.10102V6.39448L9.43329 11.0462L6.12823 14.3557L4.78156 13.009ZM12.5161 11.0484L15.7992 7.76535L17.1524 9.11862L15.2226 11.0484L17.2184 13.0442V15.7353L17.2118 15.7419L12.5161 11.0484ZM9.03941 4.87838L7.69274 6.22505L10.9758 9.5081L15.6055 4.87838H12.899L10.9758 6.80156L9.05261 4.87838H9.03941ZM11 22C17.0754 22 22 17.0754 22 11C22 4.92458 17.0754 0 11 0C4.92458 0 0 4.92458 0 11C0 17.0754 4.92458 22 11 22Z" fill="#3864FF"/>
</svg>
