<svg width="32" height="32" viewBox="0 0 32 32" fill="none" xmlns="http://www.w3.org/2000/svg">
<path d="M9.59948 14.9333H8.53281V17.0667H9.59948V14.9333ZM22.3995 17.0667H23.4661V14.9333H22.3995V17.0667ZM9.59948 8.53333H8.53281V10.6667H9.59948V8.53333ZM13.8661 10.6667H14.9328V8.53333H13.8661V10.6667ZM22.3995 1.06667L23.1547 0.311467L22.8411 0H22.3995V1.06667ZM28.7995 7.46667H29.8661V7.02507L29.5547 6.71147L28.7995 7.46667ZM17.0661 23.4667L16.3109 24.2219L17.0661 23.4667ZM15.9995 24.5333L16.4773 25.4869L16.5627 25.4443L16.6395 25.3867L15.9995 24.5333ZM9.59948 17.0667H22.3995V14.9333H9.59948V17.0667ZM9.59948 10.6667H13.8661V8.53333H9.59948V10.6667ZM26.6661 29.8667H5.33281V32H26.6661V29.8667ZM4.26615 28.8V3.2H2.13281V28.8H4.26615ZM5.33281 2.13333H22.3995V0H5.33281V2.13333ZM27.7328 7.46667V28.8H29.8661V7.46667H27.7328ZM21.6443 1.82187L28.0443 8.22187L29.5547 6.71147L23.1547 0.311467L21.6443 1.82187ZM5.33281 29.8667C5.04992 29.8667 4.7786 29.7543 4.57857 29.5542C4.37853 29.3542 4.26615 29.0829 4.26615 28.8H2.13281C2.13281 29.6487 2.46995 30.4626 3.07007 31.0627C3.67019 31.6629 4.48412 32 5.33281 32V29.8667ZM26.6661 32C27.5148 32 28.3288 31.6629 28.9289 31.0627C29.529 30.4626 29.8661 29.6487 29.8661 28.8H27.7328C27.7328 29.0829 27.6204 29.3542 27.4204 29.5542C27.2204 29.7543 26.949 29.8667 26.6661 29.8667V32ZM4.26615 3.2C4.26615 2.9171 4.37853 2.64579 4.57857 2.44575C4.7786 2.24571 5.04992 2.13333 5.33281 2.13333V0C4.48412 0 3.67019 0.337142 3.07007 0.937258C2.46995 1.53737 2.13281 2.35131 2.13281 3.2H4.26615ZM11.6773 24.8704C11.9141 24.16 12.5883 23.5008 13.448 23.2704C14.2523 23.0549 15.2869 23.1957 16.3109 24.2219L17.8213 22.7115C16.2853 21.1755 14.4741 20.7851 12.8955 21.2096C11.3744 21.6192 10.1285 22.7733 9.65281 24.1963L11.6795 24.8704H11.6773ZM16.3109 24.2219C16.371 24.2801 16.4273 24.3421 16.4795 24.4075L18.1648 23.0976C18.0584 22.9626 17.9437 22.8344 17.8213 22.7136L16.3109 24.2219ZM16.4795 24.4075C16.6459 24.6208 16.6075 24.6891 16.6139 24.6421C16.6181 24.6123 16.6267 24.6613 16.4987 24.7765C16.3142 24.9307 16.1051 25.0526 15.88 25.1371C15.6096 25.2459 15.3276 25.3232 15.0395 25.3675C14.8637 25.4009 14.684 25.4081 14.5061 25.3888C14.4699 25.3803 14.5445 25.3888 14.6555 25.4677C14.7915 25.5727 14.8915 25.7174 14.9416 25.8818C14.9917 26.0462 14.9893 26.2221 14.9349 26.3851C14.9229 26.4204 14.9064 26.4541 14.8859 26.4853C14.8816 26.4896 14.9179 26.4427 15.0395 26.3424C15.2827 26.1461 15.7307 25.8603 16.4773 25.4891L15.5216 23.5797C14.7173 23.9808 14.1136 24.3477 13.6997 24.6827C13.4899 24.8465 13.3033 25.0381 13.1451 25.2523C12.9439 25.5216 12.8387 25.8506 12.8464 26.1867C12.8556 26.3834 12.9094 26.5755 13.0036 26.7484C13.0978 26.9214 13.2301 27.0707 13.3904 27.1851C13.6315 27.3643 13.8981 27.4411 14.0944 27.4816C14.4933 27.5605 14.9477 27.5392 15.3595 27.4773C16.1701 27.3536 17.2197 27.0037 17.9344 26.3552C18.3056 26.016 18.6576 25.5296 18.7323 24.8917C18.8091 24.2389 18.5744 23.6267 18.1627 23.0997L16.4773 24.4075H16.4795ZM16.6395 25.3867C16.9808 25.1256 17.3517 24.9058 17.7445 24.7317L16.8976 22.7733C16.3856 22.9952 15.8736 23.296 15.3595 23.68L16.6395 25.3867ZM17.7445 24.7317C19.1312 24.1323 20.3707 24.448 21.64 25.0517C21.96 25.2053 22.2715 25.3717 22.5872 25.5424C22.8944 25.7088 23.2187 25.8859 23.5259 26.0437C24.1147 26.3403 24.8443 26.6667 25.5995 26.6667V24.5333C25.3989 24.5333 25.0704 24.4331 24.4901 24.1408C24.2171 24 23.9312 23.8421 23.6027 23.6651C23.2827 23.4923 22.9285 23.3024 22.5573 23.1275C21.0683 22.4171 19.1205 21.8133 16.8976 22.7733L17.7445 24.7317Z" fill="#A4A9B7"/>
</svg>
