<svg width="28" height="28" viewBox="0 0 28 28" fill="none" xmlns="http://www.w3.org/2000/svg">
<g clip-path="url(#clip0_1949_12591)">
<path d="M8.12339 21.3909L8.12437 21.8909C8.12404 21.8909 8.12371 21.8909 8.12339 21.8909C6.33844 21.8943 4.57894 21.5121 2.95051 20.776C5.20416 24.2642 9.00749 26.546 13.3099 26.546C20.1989 26.546 25.8221 20.6902 25.8221 13.4171C25.8221 8.67319 23.4243 4.52814 19.8444 2.22243C20.7209 4.08612 21.1807 6.14563 21.1789 8.24077L19.0444 1.74867C20.1146 3.71868 20.6809 5.95676 20.6789 8.24034C20.6789 15.5032 15.0579 21.3909 8.12339 21.3909ZM8.12339 21.3909C6.16073 21.3948 4.22874 20.9128 2.47991 19.9891L8.12339 21.3909Z" fill="white" stroke="white"/>
</g>
<defs>
<clipPath id="clip0_1949_12591">
<rect width="26.2857" height="27.8319" fill="white" transform="translate(0.857422 0.0839844)"/>
</clipPath>
</defs>
</svg>
