<svg width="29" height="24" viewBox="0 0 31 24" fill="none" xmlns="http://www.w3.org/2000/svg">
    <path d="M26.2599 2.00999C24.2533 1.071 22.1076 0.388577 19.8644 0C19.5889 0.498142 19.2671 1.16815 19.0452 1.70115C16.6606 1.34249 14.2979 1.34249 11.9572 1.70115C11.7353 1.16815 11.4061 0.498142 11.1282 0C8.88254 0.388577 6.73443 1.07351 4.72775 2.01497C0.680247 8.13203 -0.416964 14.0972 0.131642 19.9776C2.81616 21.9826 5.41778 23.2005 7.97549 23.9975C8.60701 23.1283 9.17023 22.2042 9.65544 21.2304C8.73135 20.8792 7.84627 20.4459 7.00997 19.9427C7.23183 19.7783 7.44886 19.6065 7.65852 19.4296C12.7593 21.8157 18.3015 21.8157 23.3414 19.4296C23.5535 19.6065 23.7705 19.7783 23.9899 19.9427C23.1512 20.4483 22.2637 20.8817 21.3396 21.2329C21.8248 22.2042 22.3856 23.1308 23.0195 24C25.5797 23.203 28.1837 21.9851 30.8682 19.9776C31.512 13.1607 29.7686 7.25033 26.2599 2.00999ZM10.3504 16.3612C8.81914 16.3612 7.56342 14.9315 7.56342 13.1906C7.56342 11.4496 8.79233 10.0175 10.3504 10.0175C11.9084 10.0175 13.1641 11.4471 13.1373 13.1906C13.1397 14.9315 11.9084 16.3612 10.3504 16.3612ZM20.6495 16.3612C19.1183 16.3612 17.8626 14.9315 17.8626 13.1906C17.8626 11.4496 19.0915 10.0175 20.6495 10.0175C22.2076 10.0175 23.4633 11.4471 23.4365 13.1906C23.4365 14.9315 22.2076 16.3612 20.6495 16.3612Z" fill="#B9B9B9"/>
</svg>

