<svg width="10" height="6" viewBox="0 0 10 6" fill="none" xmlns="http://www.w3.org/2000/svg">
<path d="M8.96767 0.982517C8.89828 0.912989 8.81586 0.857828 8.72513 0.820192C8.6344 0.782556 8.53714 0.763184 8.43892 0.763184C8.34069 0.763184 8.24343 0.782556 8.1527 0.820192C8.06197 0.857828 7.97955 0.912989 7.91017 0.982517L5.00017 3.89252L2.09017 0.982516C1.94993 0.842283 1.75974 0.763501 1.56142 0.763501C1.3631 0.763501 1.1729 0.842283 1.03267 0.982516C0.892433 1.12275 0.813652 1.31295 0.813652 1.51127C0.813652 1.70959 0.892433 1.89978 1.03267 2.04002L4.47517 5.48252C4.54455 5.55204 4.62697 5.60721 4.7177 5.64484C4.80843 5.68248 4.90569 5.70185 5.00392 5.70185C5.10214 5.70185 5.1994 5.68248 5.29013 5.64484C5.38086 5.60721 5.46328 5.55204 5.53267 5.48252L8.97517 2.04002C9.26017 1.75502 9.26017 1.27502 8.96767 0.982517Z" fill="white"/>
</svg>
