<svg width="434" height="316" viewBox="0 0 434 316" fill="none" xmlns="http://www.w3.org/2000/svg">
<path d="M433.167 10.9428C433.687 10.2984 433.587 9.35399 432.943 8.83331L422.443 0.348278C421.798 -0.172406 420.854 -0.0721588 420.333 0.572186C419.812 1.21653 419.913 2.16097 420.557 2.68166L429.891 10.2239L422.348 19.5574C421.828 20.2018 421.928 21.1462 422.572 21.6669C423.217 22.1876 424.161 22.0873 424.682 21.443L433.167 10.9428ZM3.45485 315.365C3.91031 313.551 4.36944 311.747 4.83235 309.953L1.92752 309.204C1.46293 311.004 1.00218 312.814 0.545146 314.635L3.45485 315.365ZM7.65621 299.312C8.63824 295.713 9.63719 292.157 10.6541 288.643L7.77235 287.809C6.75104 291.339 5.74796 294.909 4.76206 298.522L7.65621 299.312ZM13.7957 278.109C14.8898 274.549 16.0042 271.034 17.1403 267.564L14.2891 266.63C13.1472 270.119 12.0273 273.651 10.9281 277.227L13.7957 278.109ZM20.6764 257.105C21.8946 253.617 23.1369 250.175 24.4047 246.779L21.5942 245.729C20.3187 249.146 19.0691 252.608 17.8442 256.115L20.6764 257.105ZM28.3955 236.451C29.7731 233.007 31.1798 229.612 32.6169 226.266L29.8602 225.082C28.413 228.452 26.9968 231.87 25.6101 235.337L28.3955 236.451ZM37.0846 216.231C38.6406 212.86 40.2309 209.541 41.8571 206.271L39.171 204.935C37.5316 208.231 35.9287 211.577 34.3609 214.973L37.0846 216.231ZM46.9169 196.479C48.6626 193.226 50.4477 190.026 52.2741 186.877L49.679 185.372C47.8357 188.55 46.0345 191.779 44.2735 195.06L46.9169 196.479ZM57.957 177.457C59.9201 174.329 61.9285 171.254 63.9841 168.231L61.5033 166.544C59.4267 169.598 57.3982 172.704 55.416 175.863L57.957 177.457ZM70.3413 159.254C72.5227 156.295 74.7545 153.39 77.0387 150.536L74.6964 148.661C72.3873 151.546 70.1314 154.483 67.9268 157.473L70.3413 159.254ZM84.0846 142.087C86.4901 139.32 88.9505 136.603 91.468 133.936L89.2866 131.877C86.7407 134.574 84.2526 137.321 81.8203 140.119L84.0846 142.087ZM99.1787 126.101C101.798 123.547 104.475 121.042 107.213 118.585L105.209 116.352C102.441 118.837 99.7331 121.37 97.0844 123.953L99.1787 126.101ZM115.552 111.402C118.36 109.082 121.227 106.807 124.157 104.575L122.339 102.189C119.378 104.444 116.479 106.744 113.641 109.09L115.552 111.402ZM133.034 98.0826C136.019 95.9855 139.066 93.9297 142.176 91.9142L140.544 89.3967C137.404 91.4321 134.326 93.5088 131.309 95.6276L133.034 98.0826ZM151.507 86.101C154.621 84.2366 157.795 82.4088 161.03 80.617L159.576 77.9926C156.312 79.8005 153.109 81.6451 149.966 83.5272L151.507 86.101ZM170.769 75.4264C174.004 73.7679 177.296 72.1421 180.649 70.5483L179.361 67.8388C175.982 69.4452 172.662 71.0844 169.4 72.7569L170.769 75.4264ZM190.636 65.9739C193.972 64.5018 197.364 63.0588 200.815 61.6441L199.677 58.8684C196.202 60.2928 192.786 61.7463 189.425 63.2293L190.636 65.9739ZM211.046 57.5973C214.435 56.304 217.879 55.0359 221.376 53.7925L220.371 50.9658C216.853 52.2166 213.388 53.4927 209.976 54.7944L211.046 57.5973ZM231.874 50.1892C235.301 49.0536 238.778 47.9401 242.305 46.848L241.418 43.9822C237.872 45.0799 234.376 46.1996 230.93 47.3415L231.874 50.1892ZM252.928 43.6691C256.408 42.6626 259.935 41.6754 263.511 40.7074L262.727 37.8116C259.135 38.7841 255.591 39.7758 252.094 40.7872L252.928 43.6691ZM274.206 37.9053C277.732 37.0114 281.304 36.1347 284.922 35.2749L284.228 32.3562C280.596 33.2193 277.01 34.0996 273.469 34.9973L274.206 37.9053ZM295.674 32.7993C299.233 32.0056 302.835 31.2272 306.481 30.4637L305.866 27.5274C302.208 28.2934 298.593 29.0746 295.021 29.8712L295.674 32.7993ZM317.286 28.2701C320.867 27.5654 324.488 26.8744 328.15 26.1966L327.604 23.2466C323.931 23.9265 320.299 24.6197 316.707 25.3265L317.286 28.2701ZM339.013 24.2461C342.604 23.6206 346.234 23.0071 349.903 22.4053L349.417 19.4449C345.739 20.0482 342.099 20.6634 338.498 21.2906L339.013 24.2461ZM360.834 20.6649C364.427 20.1096 368.057 19.5649 371.723 19.0306L371.291 16.0619C367.616 16.5974 363.978 17.1434 360.375 17.7001L360.834 20.6649ZM382.738 17.4719C386.326 16.9789 389.949 16.4953 393.606 16.021L393.22 13.0459C389.556 13.5212 385.926 14.0058 382.33 14.4998L382.738 17.4719ZM404.681 14.6254C408.272 14.1859 411.895 13.7549 415.551 13.332L415.207 10.3519C411.544 10.7755 407.914 11.2073 404.316 11.6476L404.681 14.6254ZM426.573 12.093C428.427 11.8906 430.288 11.6901 432.158 11.4916L431.842 8.50838C429.969 8.70718 428.104 8.90798 426.247 9.11079L426.573 12.093Z" fill="#9CA0AC" fill-opacity="0.55"/>
</svg>
