<svg width="27" height="27" viewBox="0 0 27 27" fill="none" xmlns="http://www.w3.org/2000/svg">
<path d="M19.5926 2.90869C20.1969 2.90862 20.7787 3.13796 21.2205 3.55038C21.6622 3.9628 21.9309 4.52753 21.9723 5.13045L21.9776 5.29369V21.7216C21.9774 22.3257 21.7479 22.9073 21.3355 23.3488C20.9231 23.7903 20.3586 24.0589 19.7558 24.1002L19.5926 24.1055H7.40258C6.79824 24.1056 6.21642 23.8762 5.77468 23.4638C5.33294 23.0514 5.06424 22.4867 5.02288 21.8838L5.01758 21.7216V5.29369C5.0175 4.68936 5.24685 4.10753 5.65927 3.66579C6.07169 3.22406 6.63642 2.95535 7.23934 2.91399L7.40258 2.90869H19.5926ZM8.99258 8.20021C8.78173 8.20021 8.57952 8.28397 8.43043 8.43306C8.28134 8.58215 8.19758 8.78436 8.19758 8.99521C8.19758 9.20606 8.28134 9.40827 8.43043 9.55736C8.57952 9.70645 8.78173 9.79021 8.99258 9.79021H18.0026C18.2134 9.79021 18.4156 9.70645 18.5647 9.55736C18.7138 9.40827 18.7976 9.20606 18.7976 8.99521C18.7976 8.78436 18.7138 8.58215 18.5647 8.43306C18.4156 8.28397 18.2134 8.20021 18.0026 8.20021H8.99258ZM8.19758 13.2352C8.19758 13.6741 8.55374 14.0302 8.99258 14.0302H18.0026C18.2134 14.0302 18.4156 13.9465 18.5647 13.7974C18.7138 13.6483 18.7976 13.4461 18.7976 13.2352C18.7976 13.0244 18.7138 12.8222 18.5647 12.6731C18.4156 12.524 18.2134 12.4402 18.0026 12.4402H8.99258C8.78173 12.4402 8.57952 12.524 8.43043 12.6731C8.28134 12.8222 8.19758 13.0244 8.19758 13.2352ZM8.99258 16.6802C8.78173 16.6802 8.57952 16.764 8.43043 16.9131C8.28134 17.0622 8.19758 17.2644 8.19758 17.4752C8.19758 17.6861 8.28134 17.8883 8.43043 18.0374C8.57952 18.1865 8.78173 18.2702 8.99258 18.2702H18.0026C18.2134 18.2702 18.4156 18.1865 18.5647 18.0374C18.7138 17.8883 18.7976 17.6861 18.7976 17.4752C18.7976 17.2644 18.7138 17.0622 18.5647 16.9131C18.4156 16.764 18.2134 16.6802 18.0026 16.6802H8.99258Z" fill="#FF09E6"/>
</svg>
