<svg width="20" height="20" viewBox="0 0 20 20" fill="none" xmlns="http://www.w3.org/2000/svg">
<mask id="path-1-inside-1_1949_4865" fill="white">
<path d="M16.4308 4.39831C16.4304 4.34369 16.4158 4.29025 16.3887 4.24379C16.3616 4.19733 16.3229 4.15963 16.277 4.1348C16.2311 4.10996 16.1796 4.09893 16.1281 4.10292C16.0767 4.1069 16.0273 4.12575 15.9852 4.1574L14.8785 4.99742L14.7914 5.06386C13.5988 3.80372 11.962 3.01575 10.1483 3.01575C6.51112 3.01575 3.55218 6.14913 3.55218 10.0001C3.55218 13.8511 6.5113 16.9845 10.1483 16.9845C11.2284 16.9847 12.2919 16.704 13.2456 16.1672C14.1992 15.6303 15.0137 14.8537 15.6175 13.9055C15.6419 13.8675 15.6589 13.8248 15.6677 13.7798C15.6764 13.7348 15.6767 13.6885 15.6684 13.6434C15.6602 13.5983 15.6437 13.5554 15.6198 13.517C15.5959 13.4787 15.565 13.4458 15.5291 13.4201L13.8789 12.2075C13.8012 12.1525 13.7062 12.1323 13.6146 12.1512C13.5229 12.1701 13.442 12.2266 13.3896 12.3084C12.6601 13.4503 11.4513 14.132 10.1545 14.132C8.0025 14.132 6.25157 12.2785 6.25157 10.0005C6.25157 7.72252 8.0025 5.86899 10.1545 5.86899C11.0627 5.86899 11.8957 6.20334 12.559 6.75613L12.3726 6.89807L11.2651 7.7379C11.2234 7.76996 11.1907 7.81354 11.1707 7.8639C11.1508 7.91426 11.1442 7.96946 11.1519 8.02348C11.1595 8.07749 11.181 8.12826 11.214 8.17023C11.247 8.21221 11.2902 8.24378 11.339 8.26151L16.0768 9.97053C16.1627 10.0023 16.2567 9.9869 16.3315 9.93051C16.4058 9.87334 16.4487 9.78325 16.4483 9.68783L16.4308 4.39831Z"/>
</mask>
<path d="M16.4308 4.39831C16.4304 4.34369 16.4158 4.29025 16.3887 4.24379C16.3616 4.19733 16.3229 4.15963 16.277 4.1348C16.2311 4.10996 16.1796 4.09893 16.1281 4.10292C16.0767 4.1069 16.0273 4.12575 15.9852 4.1574L14.8785 4.99742L14.7914 5.06386C13.5988 3.80372 11.962 3.01575 10.1483 3.01575C6.51112 3.01575 3.55218 6.14913 3.55218 10.0001C3.55218 13.8511 6.5113 16.9845 10.1483 16.9845C11.2284 16.9847 12.2919 16.704 13.2456 16.1672C14.1992 15.6303 15.0137 14.8537 15.6175 13.9055C15.6419 13.8675 15.6589 13.8248 15.6677 13.7798C15.6764 13.7348 15.6767 13.6885 15.6684 13.6434C15.6602 13.5983 15.6437 13.5554 15.6198 13.517C15.5959 13.4787 15.565 13.4458 15.5291 13.4201L13.8789 12.2075C13.8012 12.1525 13.7062 12.1323 13.6146 12.1512C13.5229 12.1701 13.442 12.2266 13.3896 12.3084C12.6601 13.4503 11.4513 14.132 10.1545 14.132C8.0025 14.132 6.25157 12.2785 6.25157 10.0005C6.25157 7.72252 8.0025 5.86899 10.1545 5.86899C11.0627 5.86899 11.8957 6.20334 12.559 6.75613L12.3726 6.89807L11.2651 7.7379C11.2234 7.76996 11.1907 7.81354 11.1707 7.8639C11.1508 7.91426 11.1442 7.96946 11.1519 8.02348C11.1595 8.07749 11.181 8.12826 11.214 8.17023C11.247 8.21221 11.2902 8.24378 11.339 8.26151L16.0768 9.97053C16.1627 10.0023 16.2567 9.9869 16.3315 9.93051C16.4058 9.87334 16.4487 9.78325 16.4483 9.68783L16.4308 4.39831Z" fill="url(#paint0_linear_1949_4865)"/>
<path d="M15.9852 4.1574L15.3837 3.35856L15.3806 3.36086L15.9852 4.1574ZM14.8785 4.99742L14.2739 4.20088L14.2722 4.20219L14.8785 4.99742ZM14.7914 5.06386L14.0651 5.75122L14.6829 6.40407L15.3977 5.85909L14.7914 5.06386ZM10.1483 16.9845L10.1485 15.9845H10.1483V16.9845ZM15.6175 13.9055L14.7757 13.3657L14.774 13.3683L15.6175 13.9055ZM15.5291 13.4201L14.9369 14.226L14.9481 14.2341L15.5291 13.4201ZM13.8789 12.2075L14.471 11.4017L14.4639 11.3965L14.4567 11.3914L13.8789 12.2075ZM13.3896 12.3084L12.5478 11.7686L12.5468 11.7701L13.3896 12.3084ZM12.559 6.75613L13.1648 7.55168L14.1631 6.7914L13.1992 5.98797L12.559 6.75613ZM12.3726 6.89807L12.9768 7.69487L12.9785 7.69362L12.3726 6.89807ZM11.2651 7.7379L10.6609 6.94108L10.6562 6.94468L11.2651 7.7379ZM11.339 8.26151L10.9975 9.20139L10.9997 9.20218L11.339 8.26151ZM16.0768 9.97053L16.4237 9.03258L16.4162 9.02986L16.0768 9.97053ZM16.3315 9.93051L16.9333 10.7293L16.9414 10.723L16.3315 9.93051ZM16.4483 9.68783L15.4483 9.69114L15.4483 9.69174L16.4483 9.68783ZM17.4308 4.39045C17.429 4.16418 17.3688 3.93929 17.2524 3.73976L15.525 4.74783C15.4628 4.64122 15.4317 4.5232 15.4308 4.40616L17.4308 4.39045ZM17.2524 3.73976C17.1357 3.53987 16.9649 3.36994 16.7526 3.25515L15.8014 5.01445C15.6809 4.94933 15.5874 4.85479 15.525 4.74783L17.2524 3.73976ZM16.7526 3.25515C16.5397 3.14002 16.2965 3.08688 16.0509 3.1059L16.2054 5.09993C16.0626 5.11099 15.9224 5.0799 15.8014 5.01445L16.7526 3.25515ZM16.0509 3.1059C15.8054 3.12492 15.5748 3.21463 15.3837 3.35856L16.5868 4.95623C16.4797 5.03686 16.348 5.08888 16.2054 5.09993L16.0509 3.1059ZM15.3806 3.36086L14.2739 4.20089L15.4831 5.79396L16.5898 4.95394L15.3806 3.36086ZM14.2722 4.20219L14.1851 4.26863L15.3977 5.85909L15.4848 5.79265L14.2722 4.20219ZM15.5177 4.3765C14.1543 2.93586 12.262 2.01575 10.1483 2.01575V4.01575C11.6621 4.01575 13.0433 4.67159 14.0651 5.75122L15.5177 4.3765ZM10.1483 2.01575C5.9057 2.01575 2.55218 5.65152 2.55218 10.0001H4.55218C4.55218 6.64674 7.11654 4.01575 10.1483 4.01575V2.01575ZM2.55218 10.0001C2.55218 14.3487 5.9059 17.9845 10.1483 17.9845V15.9845C7.1167 15.9845 4.55218 13.3535 4.55218 10.0001H2.55218ZM10.1482 17.9845C11.4025 17.9847 12.6348 17.6586 13.7361 17.0386L12.755 15.2958C11.9491 15.7494 11.0543 15.9846 10.1485 15.9845L10.1482 17.9845ZM13.7361 17.0386C14.8371 16.4187 15.7713 15.5256 16.461 14.4426L14.774 13.3683C14.2561 14.1817 13.5613 14.8418 12.755 15.2958L13.7361 17.0386ZM16.4593 14.4453C16.553 14.2992 16.6168 14.1378 16.6493 13.9706L14.686 13.589C14.701 13.5118 14.7308 13.4358 14.7757 13.3657L16.4593 14.4453ZM16.6493 13.9706C16.6818 13.8034 16.6828 13.6316 16.6523 13.4641L14.6846 13.8226C14.6706 13.7454 14.671 13.6662 14.686 13.589L16.6493 13.9706ZM16.6523 13.4641C16.6217 13.2966 16.5599 13.1345 16.468 12.9874L14.7715 14.0467C14.7275 13.9762 14.6987 13.9 14.6846 13.8226L16.6523 13.4641ZM16.468 12.9874C16.3761 12.8402 16.2553 12.7099 16.11 12.6062L14.9481 14.2341C14.8748 14.1817 14.8156 14.1172 14.7715 14.0467L16.468 12.9874ZM16.1212 12.6143L14.471 11.4017L13.2867 13.0133L14.9369 14.226L16.1212 12.6143ZM14.4567 11.3914C14.1572 11.1793 13.7805 11.0959 13.4125 11.1718L13.8166 13.1306C13.6319 13.1687 13.4453 13.1258 13.301 13.0236L14.4567 11.3914ZM13.4125 11.1718C13.046 11.2474 12.7394 11.4699 12.5478 11.7686L14.2313 12.8483C14.1446 12.9834 13.9998 13.0928 13.8166 13.1306L13.4125 11.1718ZM12.5468 11.7701C11.991 12.6401 11.0917 13.132 10.1545 13.132V15.132C11.8109 15.132 13.3291 14.2604 14.2323 12.8468L12.5468 11.7701ZM10.1545 13.132C8.60766 13.132 7.25157 11.7806 7.25157 10.0005H5.25157C5.25157 12.7764 7.39735 15.132 10.1545 15.132V13.132ZM7.25157 10.0005C7.25157 8.22041 8.60766 6.86899 10.1545 6.86899V4.86899C7.39735 4.86899 5.25157 7.22463 5.25157 10.0005H7.25157ZM10.1545 6.86899C10.8102 6.86899 11.4204 7.10894 11.9187 7.52429L13.1992 5.98797C12.3711 5.29774 11.3153 4.86899 10.1545 4.86899V6.86899ZM11.9531 5.96058L11.7667 6.10252L12.9785 7.69362L13.1648 7.55168L11.9531 5.96058ZM11.7683 6.10127L10.6609 6.9411L11.8694 8.5347L12.9768 7.69487L11.7683 6.10127ZM10.6562 6.94468C10.4669 7.09001 10.3257 7.28212 10.2412 7.49526L12.1003 8.23255C12.0557 8.34496 11.9798 8.4499 11.8741 8.53112L10.6562 6.94468ZM10.2412 7.49526C10.1567 7.70814 10.13 7.93864 10.1617 8.16326L12.142 7.88369C12.1585 8.00028 12.1448 8.12038 12.1003 8.23255L10.2412 7.49526ZM10.1617 8.16326C10.1934 8.38797 10.2834 8.60461 10.4279 8.78835L12.0001 7.55211C12.0785 7.6519 12.1256 7.76702 12.142 7.88369L10.1617 8.16326ZM10.4279 8.78835C10.5727 8.97252 10.7682 9.11807 10.9975 9.20138L11.6805 7.32163C11.8123 7.36949 11.9213 7.45189 12.0001 7.55211L10.4279 8.78835ZM10.9997 9.20218L15.7375 10.9112L16.4162 9.02986L11.6784 7.32084L10.9997 9.20218ZM15.73 10.9085C16.1518 11.0644 16.601 10.9795 16.9332 10.7293L15.7299 9.13178C15.9124 8.99429 16.1736 8.94012 16.4237 9.03261L15.73 10.9085ZM16.9414 10.723C17.2726 10.4682 17.4498 10.0785 17.4483 9.68393L15.4483 9.69174C15.4475 9.48795 15.5391 9.27852 15.7217 9.13802L16.9414 10.723ZM17.4483 9.68452L17.4308 4.395L15.4308 4.40162L15.4483 9.69114L17.4483 9.68452Z" fill="url(#paint1_linear_1949_4865)" mask="url(#path-1-inside-1_1949_4865)"/>
<defs>
<linearGradient id="paint0_linear_1949_4865" x1="7.23088" y1="6.97503" x2="20.1943" y2="21.9343" gradientUnits="userSpaceOnUse">
<stop stop-color="#2978F4"/>
<stop offset="1" stop-color="#23ABF8"/>
</linearGradient>
<linearGradient id="paint1_linear_1949_4865" x1="7.23088" y1="6.97503" x2="20.1943" y2="21.9343" gradientUnits="userSpaceOnUse">
<stop stop-color="#2978F4"/>
<stop offset="1" stop-color="#23ABF8"/>
</linearGradient>
</defs>
</svg>
