<svg width="27" height="27" viewBox="0 0 27 27" fill="none" xmlns="http://www.w3.org/2000/svg">
<path fill-rule="evenodd" clip-rule="evenodd" d="M13.5178 3.96045C11.1238 3.96045 8.94228 4.75121 7.65173 5.39728C7.53513 5.45558 7.42648 5.51282 7.32525 5.56794C7.12491 5.67712 6.95425 5.77888 6.81857 5.86845L8.28667 8.02979L8.97779 8.30486C11.6787 9.66749 15.3007 9.66749 18.0021 8.30486L18.7865 7.89782L20.1751 5.86845C19.8874 5.68083 19.5883 5.51142 19.2794 5.36124C17.9957 4.72206 15.8667 3.96045 13.5178 3.96045ZM10.103 6.40693C9.58311 6.30965 9.06965 6.18079 8.56545 6.02109C9.77438 5.4842 11.5764 4.91445 13.5172 4.91445C14.8618 4.91445 16.1333 5.18793 17.1848 5.53455C15.9526 5.70786 14.6377 6.00201 13.3847 6.364C12.3989 6.64914 11.2467 6.6184 10.103 6.40693ZM18.5618 9.09085L18.4319 9.15657C15.4602 10.6554 11.5191 10.6554 8.54743 9.15657L8.42447 9.09403C3.96081 13.9918 0.552912 23.0389 13.5178 23.0389C26.4816 23.0389 22.9905 13.8227 18.5618 9.09085ZM12.9666 13.5004C12.6854 13.5004 12.4158 13.6121 12.217 13.8109C12.0182 14.0097 11.9066 14.2793 11.9066 14.5604C11.9066 14.8416 12.0182 15.1112 12.217 15.31C12.4158 15.5088 12.6854 15.6204 12.9666 15.6204V13.5004ZM14.0266 12.4404V11.9104H12.9666V12.4404C12.4043 12.4404 11.8651 12.6638 11.4675 13.0614C11.0699 13.459 10.8466 13.9982 10.8466 14.5604C10.8466 15.1227 11.0699 15.6619 11.4675 16.0595C11.8651 16.4571 12.4043 16.6804 12.9666 16.6804V18.8004C12.7474 18.8005 12.5335 18.7326 12.3545 18.6061C12.1755 18.4795 12.0401 18.3006 11.967 18.094C11.9202 17.9614 11.8226 17.8529 11.6958 17.7922C11.569 17.7316 11.4233 17.7238 11.2907 17.7707C11.1582 17.8175 11.0496 17.915 10.989 18.0418C10.9284 18.1687 10.9206 18.3144 10.9674 18.4469C11.1136 18.8603 11.3844 19.2182 11.7424 19.4714C12.1004 19.7245 12.5281 19.8604 12.9666 19.8604V20.3904H14.0266V19.8604C14.5888 19.8604 15.1281 19.6371 15.5256 19.2395C15.9232 18.8419 16.1466 18.3027 16.1466 17.7404C16.1466 17.1782 15.9232 16.639 15.5256 16.2414C15.1281 15.8438 14.5888 15.6204 14.0266 15.6204V13.5004C14.4877 13.5004 14.8804 13.7946 15.0267 14.2069C15.0484 14.2744 15.0834 14.3368 15.1296 14.3905C15.1759 14.4442 15.2324 14.4881 15.2959 14.5195C15.3594 14.551 15.4286 14.5694 15.4993 14.5737C15.5701 14.5779 15.641 14.568 15.7078 14.5443C15.7746 14.5207 15.836 14.484 15.8884 14.4362C15.9407 14.3885 15.983 14.3307 16.0126 14.2663C16.0423 14.202 16.0587 14.1323 16.0609 14.0615C16.0632 13.9906 16.0512 13.9201 16.0257 13.854C15.8795 13.4406 15.6088 13.0827 15.2508 12.8295C14.8927 12.5764 14.465 12.4405 14.0266 12.4404ZM14.0266 16.6804V18.8004C14.3077 18.8004 14.5773 18.6888 14.7761 18.49C14.9749 18.2912 15.0866 18.0216 15.0866 17.7404C15.0866 17.4593 14.9749 17.1897 14.7761 16.9909C14.5773 16.7921 14.3077 16.6804 14.0266 16.6804Z" fill="#05B786"/>
</svg>
