<svg width="21" height="17" viewBox="0 0 21 17" fill="none" xmlns="http://www.w3.org/2000/svg">
<path d="M18.958 7.29155H4.62717L9.01342 2.02322C9.21852 1.77646 9.3172 1.45833 9.28774 1.13881C9.25828 0.819296 9.1031 0.52457 8.85634 0.319469C8.60958 0.114368 8.29145 0.0156933 7.97193 0.0451521C7.65242 0.074611 7.35769 0.22979 7.15259 0.476552L1.11092 7.72655C1.07028 7.78422 1.03393 7.8448 1.00217 7.9078C1.00217 7.96822 1.00217 8.00447 0.917591 8.06489C0.862822 8.20343 0.834145 8.35091 0.833008 8.49989C0.834145 8.64886 0.862822 8.79634 0.917591 8.93489C0.917591 8.9953 0.917591 9.03155 1.00217 9.09197C1.03393 9.15497 1.07028 9.21555 1.11092 9.27322L7.15259 16.5232C7.2662 16.6596 7.40847 16.7693 7.56928 16.8445C7.73009 16.9197 7.90549 16.9585 8.08301 16.9582C8.36534 16.9588 8.63895 16.8604 8.85634 16.6803C8.97869 16.5789 9.07983 16.4543 9.15397 16.3137C9.2281 16.1731 9.27377 16.0193 9.28836 15.861C9.30296 15.7028 9.28618 15.5432 9.239 15.3914C9.19182 15.2396 9.11517 15.0987 9.01342 14.9766L4.62717 9.70822H18.958C19.2785 9.70822 19.5858 9.58091 19.8124 9.35431C20.039 9.1277 20.1663 8.82036 20.1663 8.49989C20.1663 8.17942 20.039 7.87207 19.8124 7.64547C19.5858 7.41886 19.2785 7.29155 18.958 7.29155Z" fill="#565656"/>
</svg>
