<svg width="16" height="16" viewBox="0 0 16 16" fill="none" xmlns="http://www.w3.org/2000/svg">
<path fill-rule="evenodd" clip-rule="evenodd" d="M8 1.45455C7.14044 1.45455 6.28929 1.62385 5.49516 1.95279C4.70103 2.28173 3.97947 2.76386 3.37166 3.37166C2.76386 3.97947 2.28173 4.70103 1.95279 5.49516C1.62385 6.28929 1.45455 7.14044 1.45455 8C1.45455 8.85956 1.62385 9.71071 1.95279 10.5048C2.28173 11.299 2.76386 12.0205 3.37166 12.6283C3.97947 13.2361 4.70103 13.7183 5.49516 14.0472C6.28929 14.3762 7.14044 14.5455 8 14.5455C9.73596 14.5455 11.4008 13.8558 12.6283 12.6283C13.8558 11.4008 14.5455 9.73596 14.5455 8C14.5455 6.26404 13.8558 4.59918 12.6283 3.37166C11.4008 2.14415 9.73596 1.45455 8 1.45455ZM0 8C0 3.58182 3.58182 0 8 0C12.4182 0 16 3.58182 16 8C16 12.4182 12.4182 16 8 16C3.58182 16 0 12.4182 0 8ZM8.90909 4.54545C8.90909 4.78656 8.81331 5.01779 8.64282 5.18828C8.47234 5.35877 8.24111 5.45455 8 5.45455C7.75889 5.45455 7.52766 5.35877 7.35718 5.18828C7.18669 5.01779 7.09091 4.78656 7.09091 4.54545C7.09091 4.30435 7.18669 4.07312 7.35718 3.90263C7.52766 3.73214 7.75889 3.63636 8 3.63636C8.24111 3.63636 8.47234 3.73214 8.64282 3.90263C8.81331 4.07312 8.90909 4.30435 8.90909 4.54545ZM7.27273 6.54545C7.07984 6.54545 6.89486 6.62208 6.75847 6.75847C6.62208 6.89486 6.54545 7.07984 6.54545 7.27273C6.54545 7.46561 6.62208 7.6506 6.75847 7.78699C6.89486 7.92338 7.07984 8 7.27273 8V11.6364C7.27273 11.8292 7.34935 12.0142 7.48574 12.1506C7.62213 12.287 7.80712 12.3636 8 12.3636C8.19289 12.3636 8.37787 12.287 8.51426 12.1506C8.65065 12.0142 8.72727 11.8292 8.72727 11.6364V7.27273C8.72727 7.07984 8.65065 6.89486 8.51426 6.75847C8.37787 6.62208 8.19289 6.54545 8 6.54545H7.27273Z" fill="white"/>
</svg>
