<svg width="16" height="17" viewBox="0 0 16 17" fill="none" xmlns="http://www.w3.org/2000/svg">
    <path d="M7.66836 13.2583C7.82693 13.4934 8.17298 13.4934 8.33156 13.2583L11.4582 8.62359C11.6374 8.35792 11.447 7.99989 11.1266 7.99989H9.95154C9.73063 7.99989 9.55154 7.82081 9.55154 7.59989V1.00706C9.55154 0.786142 9.37246 0.607056 9.15154 0.607056H6.84837C6.62745 0.607056 6.44837 0.786142 6.44837 1.00706V7.59989C6.44837 7.82081 6.26928 7.99989 6.04837 7.99989H4.87334C4.55287 7.99989 4.36251 8.35792 4.54174 8.62359L7.66836 13.2583Z" fill="#E0E0E0"/>
    <path d="M7.66836 13.2583C7.82693 13.4934 8.17298 13.4934 8.33156 13.2583L11.4582 8.62359C11.6374 8.35792 11.447 7.99989 11.1266 7.99989H9.95154C9.73063 7.99989 9.55154 7.82081 9.55154 7.59989V1.00706C9.55154 0.786142 9.37246 0.607056 9.15154 0.607056H6.84837C6.62745 0.607056 6.44837 0.786142 6.44837 1.00706V7.59989C6.44837 7.82081 6.26928 7.99989 6.04837 7.99989H4.87334C4.55287 7.99989 4.36251 8.35792 4.54174 8.62359L7.66836 13.2583Z" stroke="#E0E0E0"/>
    <path d="M13.4305 3.74282H12.0789C11.8856 3.74282 11.7289 3.89952 11.7289 4.09282V5.58842C11.7289 5.78172 11.8856 5.93842 12.0789 5.93842H13.2305C13.2581 5.93842 13.2805 5.96081 13.2805 5.98842V14.3714C13.2805 14.399 13.2581 14.4214 13.2305 14.4214H7.99996H2.7694C2.74179 14.4214 2.7194 14.399 2.7194 14.3714V10.0535V5.98842C2.7194 5.96081 2.74179 5.93842 2.7694 5.93842H3.92099C4.11429 5.93842 4.27099 5.78172 4.27099 5.58842V4.09282C4.27099 3.89952 4.11429 3.74282 3.92099 3.74282H2.5694C1.60417 3.74282 0.867815 4.68964 0.867815 5.78842V14.5714C0.867815 15.1286 1.05407 15.5793 1.36682 15.8911C1.67889 16.2021 2.10633 16.3642 2.5694 16.3642H13.4305C13.8936 16.3642 14.321 16.2021 14.6331 15.8911C14.9458 15.5793 15.1321 15.1286 15.1321 14.5714V5.78842C15.1321 4.68964 14.3957 3.74282 13.4305 3.74282Z" fill="#E0E0E0" stroke="#E0E0E0" stroke-width="0.3"/>
</svg>

