<svg width="28" height="28" viewBox="0 0 28 28" fill="none" xmlns="http://www.w3.org/2000/svg">
<path d="M14.0006 8.20163C12.5482 8.20163 11.1553 8.81252 10.1284 9.89991C9.10137 10.9873 8.52441 12.4621 8.52441 13.9999C8.52441 15.5377 9.10137 17.0126 10.1284 18.1C11.1553 19.1873 12.5482 19.7982 14.0006 19.7982C15.453 19.7982 16.8459 19.1873 17.8729 18.1C18.8998 17.0126 19.4768 15.5377 19.4768 13.9999C19.4768 12.4621 18.8998 10.9873 17.8729 9.89991C16.8459 8.81252 15.453 8.20163 14.0006 8.20163Z" fill="#3864FF"/>
<path fill-rule="evenodd" clip-rule="evenodd" d="M14.0007 1.24365C14.2912 1.24365 14.5698 1.36583 14.7752 1.58331C14.9806 1.80079 15.096 2.09575 15.096 2.40331V3.56297C15.096 3.87054 14.9806 4.1655 14.7752 4.38298C14.5698 4.60046 14.2912 4.72263 14.0007 4.72263C13.7103 4.72263 13.4317 4.60046 13.2263 4.38298C13.0209 4.1655 12.9055 3.87054 12.9055 3.56297V2.40331C12.9055 2.09575 13.0209 1.80079 13.2263 1.58331C13.4317 1.36583 13.7103 1.24365 14.0007 1.24365ZM4.46451 3.90275C4.66989 3.68535 4.94842 3.56322 5.23884 3.56322C5.52926 3.56322 5.80779 3.68535 6.01317 3.90275L7.65603 5.64225C7.85554 5.86096 7.96593 6.15389 7.96344 6.45795C7.96094 6.76201 7.84575 7.05287 7.64269 7.26788C7.43962 7.48289 7.16492 7.60485 6.87776 7.60749C6.59059 7.61014 6.31393 7.49325 6.10736 7.28201L4.46451 5.54251C4.25918 5.32505 4.14384 5.03014 4.14384 4.72263C4.14384 4.41513 4.25918 4.12022 4.46451 3.90275ZM23.537 3.90275C23.7423 4.12022 23.8577 4.41513 23.8577 4.72263C23.8577 5.03014 23.7423 5.32505 23.537 5.54251L21.8941 7.28201C21.7931 7.39277 21.6722 7.48111 21.5386 7.54189C21.405 7.60266 21.2613 7.63465 21.1159 7.63599C20.9704 7.63733 20.8262 7.60799 20.6916 7.54968C20.557 7.49137 20.4347 7.40526 20.3319 7.29638C20.229 7.1875 20.1477 7.05802 20.0927 6.9155C20.0376 6.77298 20.0099 6.62028 20.0111 6.4663C20.0124 6.31232 20.0426 6.16015 20.1 6.01867C20.1574 5.87718 20.2409 5.74922 20.3455 5.64225L21.9883 3.90275C22.1937 3.68535 22.4722 3.56322 22.7627 3.56322C23.0531 3.56322 23.3316 3.68535 23.537 3.90275ZM1.95312 13.9999C1.95312 13.6924 2.06852 13.3974 2.27391 13.1799C2.47931 12.9624 2.75789 12.8403 3.04836 12.8403H4.1436C4.43408 12.8403 4.71265 12.9624 4.91805 13.1799C5.12345 13.3974 5.23884 13.6924 5.23884 13.9999C5.23884 14.3075 5.12345 14.6024 4.91805 14.8199C4.71265 15.0374 4.43408 15.1596 4.1436 15.1596H3.04836C2.75789 15.1596 2.47931 15.0374 2.27391 14.8199C2.06852 14.6024 1.95313 14.3075 1.95312 13.9999ZM22.7627 13.9999C22.7627 13.6924 22.878 13.3974 23.0834 13.1799C23.2888 12.9624 23.5674 12.8403 23.8579 12.8403H24.9531C25.2436 12.8403 25.5222 12.9624 25.7276 13.1799C25.933 13.3974 26.0484 13.6924 26.0484 13.9999C26.0484 14.3075 25.933 14.6024 25.7276 14.8199C25.5222 15.0374 25.2436 15.1596 24.9531 15.1596H23.8579C23.5674 15.1596 23.2888 15.0374 23.0834 14.8199C22.878 14.6024 22.7627 14.3075 22.7627 13.9999ZM7.65603 20.7178C7.86136 20.9353 7.9767 21.2302 7.9767 21.5377C7.9767 21.8452 7.86136 22.1401 7.65603 22.3576L6.01317 24.0971C5.80661 24.3083 5.52995 24.4252 5.24278 24.4226C4.95561 24.4199 4.68091 24.298 4.47785 24.083C4.27478 23.868 4.1596 23.5771 4.1571 23.273C4.15461 22.969 4.265 22.676 4.46451 22.4573L6.10736 20.7178C6.31275 20.5004 6.59128 20.3783 6.8817 20.3783C7.17211 20.3783 7.45064 20.5004 7.65603 20.7178ZM20.3455 20.7178C20.5508 20.5004 20.8294 20.3783 21.1198 20.3783C21.4102 20.3783 21.6887 20.5004 21.8941 20.7178L23.537 22.4573C23.7365 22.676 23.8469 22.969 23.8444 23.273C23.8419 23.5771 23.7267 23.868 23.5236 24.083C23.3206 24.298 23.0459 24.4199 22.7587 24.4226C22.4715 24.4252 22.1949 24.3083 21.9883 24.0971L20.3455 22.3576C20.1401 22.1401 20.0248 21.8452 20.0248 21.5377C20.0248 21.2302 20.1401 20.9353 20.3455 20.7178ZM14.0007 23.2772C14.2912 23.2772 14.5698 23.3994 14.7752 23.6169C14.9806 23.8343 15.096 24.1293 15.096 24.4369V25.5965C15.096 25.9041 14.9806 26.1991 14.7752 26.4165C14.5698 26.634 14.2912 26.7562 14.0007 26.7562C13.7103 26.7562 13.4317 26.634 13.2263 26.4165C13.0209 26.1991 12.9055 25.9041 12.9055 25.5965V24.4369C12.9055 24.1293 13.0209 23.8343 13.2263 23.6169C13.4317 23.3994 13.7103 23.2772 14.0007 23.2772Z" fill="#3864FF"/>
</svg>
