<svg width="16" height="16" viewBox="0 0 16 16" fill="none" xmlns="http://www.w3.org/2000/svg">
<path d="M8 4.66663C7.11594 4.66663 6.2681 5.01782 5.64297 5.64294C5.01785 6.26806 4.66666 7.1159 4.66666 7.99996C4.66666 8.88401 5.01785 9.73186 5.64297 10.357C6.2681 10.9821 7.11594 11.3333 8 11.3333C8.88405 11.3333 9.7319 10.9821 10.357 10.357C10.9821 9.73186 11.3333 8.88401 11.3333 7.99996C11.3333 7.1159 10.9821 6.26806 10.357 5.64294C9.7319 5.01782 8.88405 4.66663 8 4.66663Z" fill="#3864FF"/>
<path fill-rule="evenodd" clip-rule="evenodd" d="M8 0.666626C8.17681 0.666626 8.34638 0.736864 8.4714 0.861888C8.59643 0.986912 8.66666 1.15648 8.66666 1.33329V1.99996C8.66666 2.17677 8.59643 2.34634 8.4714 2.47136C8.34638 2.59639 8.17681 2.66663 8 2.66663C7.82319 2.66663 7.65362 2.59639 7.52859 2.47136C7.40357 2.34634 7.33333 2.17677 7.33333 1.99996V1.33329C7.33333 1.15648 7.40357 0.986912 7.52859 0.861888C7.65362 0.736864 7.82319 0.666626 8 0.666626ZM2.19533 2.19529C2.32035 2.07031 2.48989 2.0001 2.66666 2.0001C2.84344 2.0001 3.01298 2.07031 3.138 2.19529L4.138 3.19529C4.25944 3.32103 4.32663 3.48943 4.32511 3.66423C4.32359 3.83902 4.25348 4.00623 4.12988 4.12984C4.00627 4.25344 3.83906 4.32356 3.66426 4.32508C3.48947 4.32659 3.32107 4.2594 3.19533 4.13796L2.19533 3.13796C2.07035 3.01294 2.00014 2.8434 2.00014 2.66663C2.00014 2.48985 2.07035 2.32031 2.19533 2.19529ZM13.8047 2.19529C13.9296 2.32031 13.9999 2.48985 13.9999 2.66663C13.9999 2.8434 13.9296 3.01294 13.8047 3.13796L12.8047 4.13796C12.7432 4.20163 12.6696 4.25242 12.5883 4.28736C12.5069 4.3223 12.4194 4.34069 12.3309 4.34146C12.2424 4.34223 12.1546 4.32536 12.0727 4.29184C11.9908 4.25832 11.9163 4.20882 11.8537 4.14622C11.7911 4.08363 11.7416 4.00919 11.7081 3.92726C11.6746 3.84533 11.6577 3.75754 11.6585 3.66902C11.6593 3.58051 11.6777 3.49303 11.7126 3.41169C11.7475 3.33035 11.7983 3.25679 11.862 3.19529L12.862 2.19529C12.987 2.07031 13.1566 2.0001 13.3333 2.0001C13.5101 2.0001 13.6796 2.07031 13.8047 2.19529ZM0.666664 7.99996C0.666664 7.82315 0.736902 7.65358 0.861926 7.52855C0.98695 7.40353 1.15652 7.33329 1.33333 7.33329H2C2.17681 7.33329 2.34638 7.40353 2.4714 7.52855C2.59643 7.65358 2.66666 7.82315 2.66666 7.99996C2.66666 8.17677 2.59643 8.34634 2.4714 8.47136C2.34638 8.59639 2.17681 8.66663 2 8.66663H1.33333C1.15652 8.66663 0.98695 8.59639 0.861926 8.47136C0.736902 8.34634 0.666664 8.17677 0.666664 7.99996ZM13.3333 7.99996C13.3333 7.82315 13.4036 7.65358 13.5286 7.52855C13.6536 7.40353 13.8232 7.33329 14 7.33329H14.6667C14.8435 7.33329 15.013 7.40353 15.1381 7.52855C15.2631 7.65358 15.3333 7.82315 15.3333 7.99996C15.3333 8.17677 15.2631 8.34634 15.1381 8.47136C15.013 8.59639 14.8435 8.66663 14.6667 8.66663H14C13.8232 8.66663 13.6536 8.59639 13.5286 8.47136C13.4036 8.34634 13.3333 8.17677 13.3333 7.99996ZM4.138 11.862C4.26298 11.987 4.33319 12.1565 4.33319 12.3333C4.33319 12.5101 4.26298 12.6796 4.138 12.8046L3.138 13.8046C3.01226 13.9261 2.84386 13.9933 2.66906 13.9917C2.49427 13.9902 2.32706 13.9201 2.20345 13.7965C2.07985 13.6729 2.00973 13.5057 2.00821 13.3309C2.0067 13.1561 2.07389 12.9877 2.19533 12.862L3.19533 11.862C3.32035 11.737 3.48989 11.6668 3.66666 11.6668C3.84344 11.6668 4.01298 11.737 4.138 11.862ZM11.862 11.862C11.987 11.737 12.1566 11.6668 12.3333 11.6668C12.5101 11.6668 12.6796 11.737 12.8047 11.862L13.8047 12.862C13.9261 12.9877 13.9933 13.1561 13.9918 13.3309C13.9903 13.5057 13.9201 13.6729 13.7965 13.7965C13.6729 13.9201 13.5057 13.9902 13.3309 13.9917C13.1561 13.9933 12.9877 13.9261 12.862 13.8046L11.862 12.8046C11.737 12.6796 11.6668 12.5101 11.6668 12.3333C11.6668 12.1565 11.737 11.987 11.862 11.862ZM8 13.3333C8.17681 13.3333 8.34638 13.4035 8.4714 13.5286C8.59643 13.6536 8.66666 13.8231 8.66666 14V14.6666C8.66666 14.8434 8.59643 15.013 8.4714 15.138C8.34638 15.2631 8.17681 15.3333 8 15.3333C7.82319 15.3333 7.65362 15.2631 7.52859 15.138C7.40357 15.013 7.33333 14.8434 7.33333 14.6666V14C7.33333 13.8231 7.40357 13.6536 7.52859 13.5286C7.65362 13.4035 7.82319 13.3333 8 13.3333Z" fill="#3864FF"/>
</svg>
