<svg width="28" height="28" viewBox="0 0 28 28" fill="none" xmlns="http://www.w3.org/2000/svg">
<path d="M21.8863 8.43354H5.45776V7.73774L19.9149 6.51314V7.73774H21.8863V5.65035C21.8863 4.1196 20.7153 3.04529 19.2854 3.26099L6.08861 5.25653C4.65736 5.47362 3.48633 6.90279 3.48633 8.43354V22.3495C3.48633 23.0876 3.76327 23.7955 4.25622 24.3175C4.74917 24.8394 5.41776 25.1327 6.1149 25.1327H21.8863C22.5835 25.1327 23.2521 24.8394 23.745 24.3175C24.238 23.7955 24.5149 23.0876 24.5149 22.3495V11.2167C24.5149 10.4786 24.238 9.77066 23.745 9.24871C23.2521 8.72677 22.5835 8.43354 21.8863 8.43354ZM19.9149 18.183C19.6559 18.1829 19.3995 18.1288 19.1603 18.0238C18.921 17.9188 18.7037 17.7649 18.5206 17.571C18.3376 17.377 18.1924 17.1468 18.0933 16.8934C17.9943 16.64 17.9434 16.3685 17.9435 16.0943C17.9436 15.82 17.9947 15.5485 18.0938 15.2952C18.193 15.0419 18.3384 14.8118 18.5215 14.618C18.7047 14.4241 18.9222 14.2704 19.1615 14.1655C19.4008 14.0607 19.6572 14.0068 19.9162 14.0069C20.4392 14.0071 20.9408 14.2272 21.3105 14.6189C21.6802 15.0107 21.8878 15.5419 21.8876 16.0956C21.8875 16.6494 21.6795 17.1805 21.3096 17.5719C20.9396 17.9634 20.4379 18.1832 19.9149 18.183Z" fill="white"/>
</svg>
