<svg width="22" height="22" viewBox="0 0 22 22" fill="none" xmlns="http://www.w3.org/2000/svg">
<path d="M18.0896 5.16766C18.0891 5.1108 18.0731 5.05515 18.0432 5.00678C18.0133 4.95841 17.9707 4.91916 17.9201 4.89329C17.8694 4.86743 17.8127 4.85595 17.7559 4.8601C17.6992 4.86425 17.6447 4.88387 17.5984 4.91683L16.3783 5.79145L16.2823 5.86063C14.9675 4.54859 13.1631 3.72815 11.1636 3.72815C7.1538 3.72815 3.89175 6.9906 3.89175 11.0002C3.89175 15.0098 7.154 18.2723 11.1636 18.2723C12.3543 18.2725 13.5268 17.9803 14.5781 17.4213C15.6294 16.8623 16.5273 16.0537 17.193 15.0665C17.2199 15.0269 17.2387 14.9824 17.2483 14.9356C17.2579 14.8888 17.2582 14.8405 17.2492 14.7936C17.2401 14.7466 17.2219 14.7019 17.1955 14.662C17.1691 14.6221 17.1352 14.5878 17.0955 14.5611L15.2763 13.2985C15.1907 13.2413 15.0859 13.2202 14.9849 13.2399C14.8838 13.2596 14.7947 13.3185 14.7368 13.4036C13.9326 14.5925 12.6 15.3023 11.1704 15.3023C8.79795 15.3023 6.86766 13.3724 6.86766 11.0006C6.86766 8.62881 8.79795 6.69892 11.1704 6.69892C12.1717 6.69892 13.09 7.04705 13.8212 7.62261L13.6157 7.7704L12.3948 8.64482C12.3487 8.6782 12.3127 8.72358 12.2907 8.77601C12.2687 8.82845 12.2615 8.88592 12.2699 8.94216C12.2783 8.9984 12.302 9.05126 12.3384 9.09496C12.3748 9.13866 12.4225 9.17154 12.4763 9.19L17.6994 10.9694C17.794 11.0025 17.8977 10.9865 17.9802 10.9278C18.0621 10.8682 18.1093 10.7744 18.1089 10.6751L18.0896 5.16766Z" fill="white"/>
</svg>
