<svg width="155" height="38" viewBox="0 0 155 38" fill="none" xmlns="http://www.w3.org/2000/svg">
<path fill-rule="evenodd" clip-rule="evenodd" d="M19.012 21.7441L24.7407 27.4567L22.45 29.7409H22.3432L19.012 26.4191L15.6807 29.7409H10.9925L19.012 21.7441ZM8.28247 22.4701V22.4473L11.6557 19.0836L8.28247 15.7199V11.045L16.3401 19.0798L10.6151 24.7962L8.28247 22.4701ZM21.68 19.0836L27.3668 13.4129L29.7109 15.7503L26.3682 19.0836L29.8253 22.5309V27.1792L29.8139 27.1906L21.68 19.0836ZM15.6578 8.42628L13.3251 10.7523L19.012 16.4231L27.0314 8.42628H22.3432L19.012 11.7481L15.6807 8.42628H15.6578ZM19.0539 38C29.5775 38 38.1078 29.4939 38.1078 19C38.1078 8.5061 29.5775 0 19.0539 0C8.53022 0 0 8.5061 0 19C0 29.4939 8.53022 38 19.0539 38Z" fill="#3888FF"/>
<path d="M87.0898 13.1277H93.0091C94.9492 13.1277 95.8411 13.8118 95.8411 15.3588C95.8411 16.9361 94.9454 17.6202 92.8872 17.6202H87.0898V13.1277ZM87.0898 21.2765H93.6342C95.6315 21.2765 96.4662 22.0215 96.4662 23.6862C96.4662 25.3509 95.6315 26.0959 93.6342 26.0959H87.0898V21.2765ZM93.6342 30.0183C98.3758 30.0183 100.404 28.2927 100.404 24.2791C100.404 21.7516 99.5383 20.0869 97.8079 19.2545C99.0885 18.3918 99.7479 16.9057 99.7479 14.7658C99.7479 10.8701 97.6897 9.20532 93.0091 9.20532H82.8857V30.0221H93.6342V30.0183Z" fill="white"/>
<path d="M105.473 9.20166H101.536V30.0184H105.473V9.20166Z" fill="white"/>
<path d="M110.493 22.2877C110.493 19.2243 111.716 17.9472 114.579 17.9472C117.441 17.9472 118.665 19.2243 118.665 22.2877C118.665 25.2903 117.441 26.6282 114.579 26.6282C111.716 26.6282 110.493 25.2903 110.493 22.2877ZM108.492 16.1913C107.211 17.4683 106.582 19.4942 106.582 22.2877C106.582 27.909 108.968 30.2883 114.575 30.2883C120.182 30.2883 122.598 27.909 122.598 22.2877C122.598 19.4942 121.973 17.4683 120.689 16.1913C119.404 14.9142 117.376 14.2871 114.575 14.2871C111.773 14.2871 109.746 14.9104 108.492 16.1913Z" fill="white"/>
<path d="M131.353 30.2844C136.274 30.2844 138.629 28.3802 139.079 23.9789H135.203C134.814 25.7349 133.564 26.6243 131.445 26.6243C128.7 26.6243 127.507 25.2864 127.507 22.2838C127.507 19.2204 128.7 17.9433 131.445 17.9433C133.621 17.9433 134.757 18.7149 135.203 20.5887H139.079C138.633 16.1874 136.274 14.2832 131.353 14.2832C125.956 14.2832 123.601 16.6929 123.601 22.2838C123.601 27.9051 125.895 30.2844 131.353 30.2844Z" fill="white"/>
<path d="M143.996 30.0184V23.9828H145.277L150.167 30.0184H155L148.559 22.109L154.314 14.5531H149.603L145.22 20.3227H143.996V9.20166H140.059V30.0184H143.996Z" fill="white"/>
<path d="M50.2208 19.441C50.2208 14.4582 51.5663 12.3108 55.3512 12.3108C59.2275 12.3108 60.451 14.3936 60.451 19.441C60.451 24.4238 59.2275 26.5712 55.3512 26.5712C51.5663 26.5712 50.2208 24.3972 50.2208 19.441ZM55.355 8.59741C48.7229 8.59741 46.2568 11.8281 46.2568 19.441C46.2568 27.0235 48.7229 30.2845 55.355 30.2845C62.0175 30.2845 64.4264 27.0539 64.4264 19.441C64.4226 11.8319 62.0175 8.59741 55.355 8.59741Z" fill="white"/>
<path d="M68.9088 30.0147L72.7851 25.0927L76.6615 30.0147H81.6317L75.3312 22.1015L81.5097 14.3062H76.57L72.7851 19.1103L69.0003 14.3062H64.03L70.239 22.1015L63.9385 30.0147H68.9088Z" fill="white"/>
</svg>
