<svg width="24" height="14" viewBox="0 0 24 14" fill="none" xmlns="http://www.w3.org/2000/svg">
    <path d="M13.5375 6.75001C13.5375 10.4775 10.5075 13.5 6.768 13.5C5.8804 13.5012 5.00125 13.3275 4.18076 12.989C3.36026 12.6504 2.61449 12.1535 1.98603 11.5267C1.35756 10.8999 0.858704 10.1555 0.517941 9.33588C0.177178 8.51629 0.00118111 7.63761 0 6.75001C0 3.02101 3.03 8.16583e-06 6.768 8.16583e-06C7.65573 -0.0013717 8.53504 0.172139 9.3557 0.51063C10.1764 0.849121 10.9223 1.34596 11.5509 1.97278C12.1796 2.59959 12.6786 3.3441 13.0194 4.16379C13.3603 4.98347 13.5363 5.86228 13.5375 6.75001ZM20.9625 6.75001C20.9625 10.26 19.4475 13.104 17.5785 13.104C15.7095 13.104 14.1945 10.2585 14.1945 6.75001C14.1945 3.24001 15.7095 0.396008 17.5785 0.396008C19.4475 0.396008 20.9625 3.24151 20.9625 6.75001ZM24 6.75001C24 9.89401 23.4675 12.4425 22.809 12.4425C22.152 12.4425 21.6195 9.89251 21.6195 6.75001C21.6195 3.60601 22.152 1.05751 22.8105 1.05751C23.4675 1.05751 24 3.60601 24 6.75001Z" fill="#050505"/>
</svg>
