<svg width="11" height="8" viewBox="0 0 11 8" fill="none" xmlns="http://www.w3.org/2000/svg">
    <path d="M1.37461 0.291679H9.62461C9.70814 0.291941 9.79001 0.314979 9.86142 0.358311C9.93283 0.401644 9.99107 0.46363 10.0299 0.5376C10.0687 0.611568 10.0866 0.69472 10.0816 0.778101C10.0767 0.861482 10.0491 0.941936 10.0018 1.0108L5.87682 6.96914C5.70586 7.21618 5.29428 7.21618 5.12286 6.96914L0.997862 1.0108C0.950115 0.94208 0.922115 0.861585 0.916904 0.778065C0.911694 0.694545 0.929471 0.611194 0.968306 0.537068C1.00714 0.462942 1.06555 0.400876 1.13718 0.357614C1.20881 0.314352 1.29093 0.291548 1.37461 0.291679Z" fill="#FF0000"/>
</svg>
