<svg width="11" height="11" viewBox="0 0 11 11" fill="none" xmlns="http://www.w3.org/2000/svg">
    <path d="M1.37461 8.70832H9.62461C9.70814 8.70806 9.79001 8.68502 9.86142 8.64169C9.93283 8.59836 9.99107 8.53637 10.0299 8.4624C10.0687 8.38843 10.0866 8.30528 10.0816 8.2219C10.0767 8.13852 10.0491 8.05806 10.0018 7.9892L5.87682 2.03086C5.70586 1.78382 5.29428 1.78382 5.12286 2.03086L0.997862 7.9892C0.950115 8.05792 0.922115 8.13841 0.916904 8.22193C0.911694 8.30546 0.929471 8.38881 0.968306 8.46293C1.00714 8.53706 1.06555 8.59912 1.13718 8.64239C1.20881 8.68565 1.29093 8.70845 1.37461 8.70832Z" fill="#0CCD17"/>
</svg>
