<svg width="38" height="38" viewBox="0 0 38 38" fill="none" xmlns="http://www.w3.org/2000/svg">
<path d="M23 24.01V18C23 17.45 22.55 17 22 17C21.45 17 21 17.45 21 18V24.01H19.21C18.76 24.01 18.54 24.55 18.86 24.8601L21.65 27.64C21.85 27.83 22.16 27.83 22.36 27.64L25.15 24.8601C25.47 24.55 25.24 24.01 24.8 24.01H23ZM15.65 10.35L12.86 13.14C12.54 13.45 12.76 13.99 13.21 13.99H15V20C15 20.55 15.45 21 16 21C16.55 21 17 20.55 17 20V13.99H18.79C19.24 13.99 19.46 13.45 19.14 13.14L16.35 10.35C16.2564 10.2587 16.1308 10.2075 16 10.2075C15.8692 10.2075 15.7436 10.2587 15.65 10.35Z" fill="#293247"/>
<circle cx="19" cy="19" r="18.5" stroke="#C7D3FF"/>
</svg>
