<svg width="21" height="15" viewBox="0 0 21 15" fill="none" xmlns="http://www.w3.org/2000/svg">
<path d="M4.50767 12.2607L11.6889 12.2607C12.3461 12.2607 12.8838 11.7246 12.8838 11.0693C12.8838 10.4141 12.3461 9.87799 11.6889 9.87799L4.50767 9.87799L4.50767 7.7455C4.50767 7.2094 3.86244 6.9473 3.49203 7.32853L0.170269 10.6524C-0.0567574 10.8906 -0.0567575 11.2599 0.170269 11.4982L3.49202 14.822C3.86244 15.2032 4.50767 14.9292 4.50767 14.4051L4.50767 12.2607ZM20.8297 3.50435L17.496 0.180528C17.1256 -0.200699 16.4803 0.0613944 16.4803 0.597495L16.4803 2.72998L9.29913 2.72998C8.64195 2.72998 8.10425 3.26608 8.10425 3.92132C8.10425 4.57655 8.64195 5.11265 9.29913 5.11265L16.4803 5.11265L16.4803 7.24514C16.4803 7.78124 17.1256 8.04333 17.496 7.66211L20.8297 4.33828C20.9389 4.22679 21 4.07714 21 3.92132C21 3.76549 20.9389 3.61584 20.8297 3.50435Z" fill="#293247"/>
</svg>
