<svg width="29" height="24" viewBox="0 0 29 24" fill="none" xmlns="http://www.w3.org/2000/svg">
    <path d="M29 2.84083C27.9326 3.32358 26.786 3.64845 25.5826 3.79497C26.8117 3.04529 27.7542 1.8583 28.1981 0.442993C27.0493 1.13702 25.7755 1.64135 24.4193 1.91396C23.3341 0.73605 21.7882 0 20.0773 0C16.7915 0 14.128 2.71362 14.128 6.05878C14.128 6.53358 14.1816 6.99702 14.282 7.43887C9.33764 7.18671 4.95435 4.7741 2.01877 1.10748C1.50794 2.00256 1.21461 3.04302 1.21461 4.15505C1.21461 6.25642 2.26414 8.11132 3.8602 9.19722C2.88539 9.16541 1.96746 8.8928 1.16553 8.43958C1.16553 8.46571 1.16553 8.48956 1.16553 8.51569C1.16553 11.4519 3.21553 13.9009 5.93808 14.4563C5.43952 14.5949 4.91308 14.6687 4.36991 14.6687C3.98735 14.6687 3.61371 14.6301 3.25122 14.5608C4.00854 16.9678 6.20576 18.7204 8.80897 18.7693C6.77347 20.3947 4.20818 21.3636 1.41983 21.3636C0.940233 21.3636 0.466213 21.3352 0 21.2784C2.63332 22.997 5.75962 24 9.12015 24C20.0639 24 26.0466 14.7676 26.0466 6.76075C26.0466 6.49837 26.041 6.23711 26.0298 5.977C27.1931 5.12168 28.2025 4.05509 29 2.84083Z" fill="#B9B9B9"/>
</svg>
