<svg width="32" height="32" viewBox="0 0 32 32" fill="none" xmlns="http://www.w3.org/2000/svg">
<path d="M14.814 30.6665C14.6594 30.6663 14.506 30.6392 14.3607 30.5865C14.0804 30.4838 13.8426 30.2901 13.6855 30.0362C13.5283 29.7824 13.4609 29.4832 13.494 29.1865L14.5207 19.7331H6.66738C6.42515 19.7335 6.1874 19.6679 5.97966 19.5433C5.77192 19.4187 5.60204 19.2399 5.48827 19.0261C5.37449 18.8122 5.32112 18.5714 5.33388 18.3296C5.34665 18.0877 5.42506 17.8538 5.56071 17.6531L16.0807 1.9198C16.2471 1.67359 16.491 1.49001 16.7736 1.39822C17.0562 1.30642 17.3614 1.31167 17.6407 1.41314C17.9092 1.51282 18.1385 1.69632 18.2946 1.93646C18.4507 2.1766 18.5253 2.46062 18.5074 2.74647L17.4807 12.2665H25.334C25.5763 12.2661 25.814 12.3317 26.0218 12.4563C26.2295 12.5809 26.3994 12.7597 26.5131 12.9735C26.6269 13.1874 26.6803 13.4282 26.6675 13.6701C26.6548 13.9119 26.5764 14.1458 26.4407 14.3465L15.9207 30.0798C15.7984 30.2607 15.6335 30.4089 15.4406 30.5112C15.2476 30.6135 15.0324 30.6668 14.814 30.6665Z" fill="#A4A9B7"/>
</svg>
